# Blender v2.92.0 OBJ File: 'Rocks.blend'
# www.blender.org
mtllib Crab.mtl
o Crab_Cube
v -0.303167 -0.303167 -19.426092
v -0.303167 0.096160 -19.426092
v -0.303167 -0.303167 -20.208813
v -0.303167 0.096160 -20.208813
v 0.303167 -0.303167 -19.408194
v 0.303167 -0.043337 -19.408194
v 0.303167 -0.303167 -20.226709
v 0.303167 -0.043337 -20.226709
v -0.303167 -0.303167 -19.817451
v -0.303167 0.096160 -19.817451
v 0.407579 -0.303167 -19.817451
v 0.407579 -0.043337 -19.817451
v 0.000000 -0.303167 -20.277449
v 0.000000 0.026412 -20.277449
v 0.000000 -0.303167 -19.357456
v 0.000000 0.026412 -19.357456
v 0.000000 0.078478 -19.817451
v 0.000000 -0.303167 -19.817451
v 0.218296 -0.060690 -20.002439
v 0.218296 0.267697 -20.002439
v 0.218296 -0.060690 -20.056097
v 0.218296 0.267697 -20.056097
v 0.271954 -0.060690 -20.002439
v 0.271954 0.267697 -20.002439
v 0.271954 -0.060690 -20.056097
v 0.271954 0.267697 -20.056097
v 0.189762 0.222715 -19.992752
v 0.189762 0.312246 -19.992752
v 0.189762 0.222715 -20.070396
v 0.189762 0.312246 -20.070396
v 0.297185 0.222715 -19.992752
v 0.297185 0.312246 -19.992752
v 0.297185 0.222715 -20.070396
v 0.297185 0.312246 -20.070396
v 0.218296 -0.060690 -19.638998
v 0.218296 0.267697 -19.638998
v 0.218296 -0.060690 -19.692656
v 0.218296 0.267697 -19.692656
v 0.271954 -0.060690 -19.638998
v 0.271954 0.267697 -19.638998
v 0.271954 -0.060690 -19.692656
v 0.271954 0.267697 -19.692656
v 0.189762 0.222715 -19.629311
v 0.189762 0.312246 -19.629311
v 0.189762 0.222715 -19.706955
v 0.189762 0.312246 -19.706955
v 0.297185 0.222715 -19.629311
v 0.297185 0.312246 -19.629311
v 0.297185 0.222715 -19.706955
v 0.297185 0.312246 -19.706955
v -0.265145 -0.185303 -19.310318
v -0.265145 -0.075325 -19.310318
v -0.265145 -0.185303 -19.420298
v -0.265145 -0.075325 -19.420298
v -0.155166 -0.185303 -19.310318
v -0.155166 -0.075325 -19.310318
v -0.155166 -0.185303 -19.420298
v -0.155166 -0.075325 -19.420298
v -0.265145 -0.172358 -19.186735
v -0.265145 -0.088271 -19.115850
v -0.155166 -0.088271 -19.115850
v -0.155166 -0.172358 -19.186735
v -0.230670 -0.342871 -19.037128
v -0.230670 -0.345767 -18.927187
v -0.120691 -0.345767 -18.927187
v -0.120691 -0.342871 -19.037128
v -0.048301 -0.185303 -19.310320
v -0.048301 -0.075325 -19.310320
v -0.048301 -0.185303 -19.420300
v -0.048301 -0.075325 -19.420300
v 0.061677 -0.185303 -19.310320
v 0.061677 -0.075325 -19.310320
v 0.061677 -0.185303 -19.420300
v 0.061677 -0.075325 -19.420300
v -0.048301 -0.172358 -19.186737
v -0.048301 -0.088271 -19.115852
v 0.061677 -0.088271 -19.115852
v 0.061677 -0.172358 -19.186737
v -0.013827 -0.342871 -19.037128
v -0.013827 -0.345767 -18.927189
v 0.096152 -0.345767 -18.927189
v 0.096152 -0.342871 -19.037128
v 0.162591 -0.185303 -19.310320
v 0.162591 -0.075325 -19.310320
v 0.162591 -0.185303 -19.420300
v 0.162591 -0.075325 -19.420300
v 0.272569 -0.185303 -19.310320
v 0.272569 -0.075325 -19.310320
v 0.272569 -0.185303 -19.420300
v 0.272569 -0.075325 -19.420300
v 0.162591 -0.172358 -19.186737
v 0.162591 -0.088271 -19.115852
v 0.272569 -0.088271 -19.115852
v 0.272569 -0.172358 -19.186737
v 0.197065 -0.342871 -19.037128
v 0.197065 -0.345767 -18.927189
v 0.307044 -0.345767 -18.927189
v 0.307044 -0.342871 -19.037128
v 0.291790 -0.185303 -20.346659
v 0.291790 -0.075325 -20.346659
v 0.291790 -0.185303 -20.236681
v 0.291790 -0.075325 -20.236681
v 0.181812 -0.185303 -20.346659
v 0.181812 -0.075325 -20.346659
v 0.181812 -0.185303 -20.236681
v 0.181812 -0.075325 -20.236681
v 0.291790 -0.172358 -20.470242
v 0.291790 -0.088271 -20.541128
v 0.181812 -0.088271 -20.541128
v 0.181812 -0.172358 -20.470242
v 0.257315 -0.342871 -20.619850
v 0.257315 -0.345767 -20.729790
v 0.147337 -0.345767 -20.729790
v 0.147337 -0.342871 -20.619850
v 0.074947 -0.185303 -20.346657
v 0.074947 -0.075325 -20.346657
v 0.074947 -0.185303 -20.236679
v 0.074947 -0.075325 -20.236679
v -0.035032 -0.185303 -20.346657
v -0.035032 -0.075325 -20.346657
v -0.035032 -0.185303 -20.236679
v -0.035032 -0.075325 -20.236679
v 0.074947 -0.172358 -20.470242
v 0.074947 -0.088271 -20.541126
v -0.035032 -0.088271 -20.541126
v -0.035032 -0.172358 -20.470242
v 0.040472 -0.342871 -20.619848
v 0.040472 -0.345767 -20.729790
v -0.069506 -0.345767 -20.729790
v -0.069506 -0.342871 -20.619848
v -0.135945 -0.185303 -20.346657
v -0.135945 -0.075325 -20.346657
v -0.135945 -0.185303 -20.236679
v -0.135945 -0.075325 -20.236679
v -0.245923 -0.185303 -20.346657
v -0.245923 -0.075325 -20.346657
v -0.245923 -0.185303 -20.236679
v -0.245923 -0.075325 -20.236679
v -0.135945 -0.172358 -20.470242
v -0.135945 -0.088271 -20.541126
v -0.245923 -0.088271 -20.541126
v -0.245923 -0.172358 -20.470242
v -0.170420 -0.342871 -20.619848
v -0.170420 -0.345767 -20.729790
v -0.280398 -0.345767 -20.729790
v -0.280398 -0.342871 -20.619848
v 0.319292 -0.190642 -19.423870
v 0.319292 -0.096489 -19.423870
v 0.365272 -0.190642 -19.506033
v 0.365272 -0.096489 -19.506033
v 0.401453 -0.190642 -19.377890
v 0.401453 -0.096489 -19.377890
v 0.447434 -0.190642 -19.460052
v 0.447434 -0.096489 -19.460052
v 0.522630 -0.096489 -19.460648
v 0.522630 -0.190642 -19.460648
v 0.535376 -0.190642 -19.367361
v 0.535376 -0.096489 -19.367361
v 0.769446 -0.074370 -19.530664
v 0.769446 -0.170988 -19.530664
v 0.679673 -0.172284 -19.556973
v 0.679673 -0.075666 -19.556973
v 0.528844 -0.079935 -19.481653
v 0.528844 -0.206479 -19.481653
v 0.545975 -0.206479 -19.356274
v 0.545975 -0.079935 -19.356274
v 0.566629 -0.079935 -19.486814
v 0.566629 -0.206479 -19.486814
v 0.583760 -0.206479 -19.361435
v 0.583760 -0.079935 -19.361435
v 0.628891 -0.078390 -19.462210
v 0.651300 -0.183242 -19.490837
v 0.309734 -0.113565 -20.163773
v 0.332731 -0.204866 -20.163773
v 0.354321 -0.102333 -20.081612
v 0.377319 -0.193634 -20.081612
v 0.389406 -0.093496 -20.209753
v 0.412404 -0.184797 -20.209753
v 0.433994 -0.082265 -20.127592
v 0.456992 -0.173566 -20.127592
v 0.529910 -0.155198 -20.126997
v 0.506913 -0.063898 -20.126997
v 0.519273 -0.060784 -20.220282
v 0.542270 -0.152085 -20.220282
v 0.774653 -0.116361 -20.056978
v 0.751054 -0.022669 -20.056978
v 0.663683 -0.043340 -20.030670
v 0.687282 -0.137032 -20.030670
v 0.539980 -0.169733 -20.105991
v 0.509070 -0.047022 -20.105991
v 0.525682 -0.042837 -20.231371
v 0.556592 -0.165549 -20.231371
v 0.576620 -0.160504 -20.100828
v 0.545711 -0.037793 -20.100828
v 0.562323 -0.033608 -20.226208
v 0.593232 -0.156319 -20.226208
v 0.637373 -0.146794 -20.125433
v 0.633493 -0.039644 -20.096806
vt 0.634375 0.716868
vt 0.621324 0.712311
vt 0.621476 0.705117
vt 0.634375 0.696226
vt 0.622379 0.682134
vt 0.617833 0.698993
vt 0.611175 0.695278
vt 0.608804 0.682315
vt 0.597325 0.694096
vt 0.605114 0.704137
vt 0.602352 0.722465
vt 0.590636 0.715521
vt 0.615092 0.740310
vt 0.613884 0.723361
vt 0.619939 0.719597
vt 0.627111 0.734208
vt 0.614876 0.656369
vt 0.606152 0.656369
vt 0.608387 0.646257
vt 0.614876 0.645003
vt 0.614875 0.710213
vt 0.614876 0.667734
vt 0.608387 0.666481
vt 0.621366 0.666038
vt 0.621366 0.656369
vt 0.621366 0.646699
vt 0.602047 0.739753
vt 0.646383 0.682587
vt 0.646383 0.650655
vt 0.648864 0.650655
vt 0.648864 0.682587
vt 0.654190 0.652465
vt 0.654190 0.684392
vt 0.650844 0.684396
vt 0.650844 0.652468
vt 0.648864 0.650655
vt 0.648864 0.682587
vt 0.646383 0.682587
vt 0.646383 0.650655
vt 0.650844 0.684396
vt 0.650844 0.652468
vt 0.654190 0.652465
vt 0.654190 0.684392
vt 0.587042 0.698133
vt 0.587042 0.690153
vt 0.588664 0.691023
vt 0.588664 0.699004
vt 0.588664 0.691023
vt 0.588664 0.699004
vt 0.587042 0.698133
vt 0.587042 0.690153
vt 0.218437 0.898475
vt 0.220947 0.898986
vt 0.221972 0.899522
vt 0.220457 0.901791
vt 0.226618 0.898718
vt 0.224085 0.912011
vt 0.238412 0.898718
vt 0.238412 0.927324
vt 0.219811 0.904106
vt 0.221971 0.898119
vt 0.646383 0.682587
vt 0.646383 0.650655
vt 0.648864 0.650655
vt 0.648864 0.682587
vt 0.654190 0.652465
vt 0.654190 0.684392
vt 0.650844 0.684396
vt 0.650844 0.652468
vt 0.648864 0.650655
vt 0.648864 0.682587
vt 0.646383 0.682587
vt 0.646383 0.650655
vt 0.650844 0.684396
vt 0.650844 0.652468
vt 0.654190 0.652465
vt 0.654190 0.684392
vt 0.587042 0.698133
vt 0.587042 0.690153
vt 0.588664 0.691023
vt 0.588664 0.699004
vt 0.588664 0.691023
vt 0.588664 0.699004
vt 0.587042 0.698133
vt 0.587042 0.690153
vt 0.207480 0.916144
vt 0.205913 0.937068
vt 0.206171 0.927506
vt 0.206875 0.916766
vt 0.206339 0.920031
vt 0.205044 0.903583
vt 0.199557 0.921328
vt 0.198262 0.904879
vt 0.214140 0.886952
vt 0.214140 0.918675
vt 0.629900 0.740409
vt 0.635872 0.734127
vt 0.637302 0.736741
vt 0.635683 0.748617
vt 0.638866 0.735973
vt 0.639765 0.738223
vt 0.639070 0.733291
vt 0.642153 0.736108
vt 0.645903 0.749906
vt 0.644542 0.728906
vt 0.654584 0.737811
vt 0.639501 0.726688
vt 0.635606 0.726192
vt 0.639452 0.696471
vt 0.643319 0.713459
vt 0.628405 0.726455
vt 0.645100 0.715095
vt 0.654584 0.699252
vt 0.632928 0.700078
vt 0.629900 0.740409
vt 0.635872 0.734127
vt 0.637302 0.736741
vt 0.635683 0.748617
vt 0.638866 0.735973
vt 0.639765 0.738223
vt 0.639070 0.733291
vt 0.642153 0.736108
vt 0.645903 0.749906
vt 0.644542 0.728906
vt 0.654584 0.737811
vt 0.639501 0.726688
vt 0.635606 0.726192
vt 0.639452 0.696471
vt 0.643319 0.713459
vt 0.628405 0.726455
vt 0.645100 0.715095
vt 0.654584 0.699252
vt 0.632928 0.700078
vt 0.629900 0.740409
vt 0.635872 0.734127
vt 0.637302 0.736741
vt 0.635683 0.748617
vt 0.638866 0.735973
vt 0.639765 0.738223
vt 0.639070 0.733291
vt 0.642153 0.736108
vt 0.645903 0.749906
vt 0.644542 0.728906
vt 0.654584 0.737811
vt 0.639501 0.726688
vt 0.635606 0.726192
vt 0.639452 0.696471
vt 0.643319 0.713459
vt 0.628405 0.726455
vt 0.645100 0.715095
vt 0.654584 0.699252
vt 0.632928 0.700078
vt 0.629900 0.740409
vt 0.635872 0.734127
vt 0.637302 0.736741
vt 0.635683 0.748617
vt 0.638866 0.735973
vt 0.639765 0.738223
vt 0.639070 0.733291
vt 0.642153 0.736108
vt 0.645903 0.749906
vt 0.644542 0.728906
vt 0.654584 0.737811
vt 0.639501 0.726688
vt 0.635606 0.726192
vt 0.639452 0.696471
vt 0.643319 0.713459
vt 0.628405 0.726455
vt 0.645100 0.715095
vt 0.654584 0.699252
vt 0.632928 0.700078
vt 0.629900 0.740409
vt 0.635872 0.734127
vt 0.637302 0.736741
vt 0.635683 0.748617
vt 0.638866 0.735973
vt 0.639765 0.738223
vt 0.639070 0.733291
vt 0.642153 0.736108
vt 0.645903 0.749906
vt 0.644542 0.728906
vt 0.654584 0.737811
vt 0.639501 0.726688
vt 0.635606 0.726192
vt 0.639452 0.696471
vt 0.643319 0.713459
vt 0.628405 0.726455
vt 0.645100 0.715095
vt 0.654584 0.699252
vt 0.632928 0.700078
vt 0.629900 0.740409
vt 0.635872 0.734127
vt 0.637302 0.736741
vt 0.635683 0.748617
vt 0.638866 0.735973
vt 0.639765 0.738223
vt 0.639070 0.733291
vt 0.642153 0.736108
vt 0.645903 0.749906
vt 0.644542 0.728906
vt 0.654584 0.737811
vt 0.639501 0.726688
vt 0.635606 0.726192
vt 0.639452 0.696471
vt 0.643319 0.713459
vt 0.628405 0.726455
vt 0.645100 0.715095
vt 0.654584 0.699252
vt 0.632928 0.700078
vt 0.596294 0.677429
vt 0.594643 0.672303
vt 0.594888 0.670915
vt 0.596436 0.671736
vt 0.593862 0.668328
vt 0.597492 0.666796
vt 0.593009 0.671523
vt 0.589695 0.666025
vt 0.592395 0.664515
vt 0.591727 0.676758
vt 0.600960 0.671566
vt 0.596443 0.661009
vt 0.586870 0.670411
vt 0.600628 0.658642
vt 0.596186 0.659831
vt 0.600960 0.656873
vt 0.586313 0.670247
vt 0.589446 0.665219
vt 0.591814 0.663341
vt 0.588688 0.663853
vt 0.591061 0.661815
vt 0.588326 0.656621
vt 0.589601 0.659395
vt 0.591006 0.657959
vt 0.595239 0.657437
vt 0.585322 0.668112
vt 0.599849 0.652556
vt 0.591034 0.657695
vt 0.585035 0.650468
vt 0.591428 0.654675
vt 0.626955 0.644390
vt 0.627658 0.647600
vt 0.627490 0.646507
vt 0.628849 0.646908
vt 0.633355 0.645236
vt 0.631798 0.650482
vt 0.625668 0.655373
vt 0.628013 0.652135
vt 0.631440 0.662395
vt 0.628303 0.665986
vt 0.629388 0.650269
vt 0.638499 0.650566
vt 0.635184 0.655871
vt 0.633611 0.658984
vt 0.636040 0.658054
vt 0.634268 0.660527
vt 0.632465 0.664058
vt 0.640638 0.653732
vt 0.630442 0.670881
vt 0.634034 0.665901
vt 0.634539 0.673023
vt 0.641740 0.679056
vt 0.638359 0.670143
vt 0.641170 0.669076
vt 0.641740 0.658908
vt 0.637129 0.661051
vt 0.635216 0.662551
vt 0.638838 0.667783
vt 0.640297 0.674667
vt 0.637949 0.668243
vn -1.0000 0.0000 0.0000
vn 0.1651 0.0000 -0.9863
vn 0.9690 0.0000 0.2472
vn -0.2208 0.0000 0.9753
vn 0.0000 -1.0000 0.0000
vn 0.1358 0.9889 0.0605
vn 0.1357 0.9889 -0.0605
vn 0.9690 0.0000 -0.2472
vn 0.2651 0.9601 -0.0894
vn 0.2651 0.9601 0.0894
vn 0.1651 0.0000 0.9863
vn -0.2208 0.0000 -0.9753
vn 0.0000 0.0000 -1.0000
vn 1.0000 0.0000 0.0000
vn 0.0000 0.0000 1.0000
vn 0.0000 1.0000 0.0000
vn 0.0000 -0.9946 0.1042
vn 0.0000 0.5910 0.8067
vn 0.0000 0.9978 0.0664
vn 0.0000 -0.9997 -0.0263
vn 0.9916 0.1179 -0.0529
vn 0.0000 -0.6595 -0.7517
vn -0.9916 -0.1179 0.0529
vn 0.0000 -0.9946 -0.1042
vn 0.0000 0.5910 -0.8067
vn 0.0000 0.9978 -0.0664
vn 0.0000 -0.9997 0.0263
vn -0.9916 0.1179 0.0529
vn 0.0000 -0.6595 0.7517
vn 0.9916 -0.1179 -0.0529
vn -0.8726 0.0000 -0.4884
vn 0.4884 0.0000 -0.8726
vn -0.4884 0.0000 0.8726
vn -0.0079 0.0000 -1.0000
vn -0.0784 0.0000 0.9969
vn -0.8614 -0.4941 0.1177
vn -0.7229 0.0000 0.6909
vn -0.9589 0.0000 -0.2837
vn -0.8704 0.4777 0.1189
vn -0.0276 0.9996 0.0060
vn -0.1354 0.0000 -0.9908
vn 0.1354 0.0000 0.9908
vn -0.5273 0.0000 -0.8497
vn 0.6736 0.0000 0.7391
vn 0.1728 -0.9810 -0.0881
vn -0.3893 0.0870 -0.9170
vn 0.8955 0.0366 0.4436
vn -0.8462 -0.2131 0.4884
vn 0.4736 0.1193 0.8726
vn 0.2443 -0.9697 -0.0000
vn -0.4736 -0.1193 -0.8726
vn -0.2443 0.9697 0.0000
vn -0.0077 -0.0019 1.0000
vn -0.0760 -0.0191 -0.9969
vn -0.9560 0.2687 -0.1177
vn -0.7009 -0.1766 -0.6910
vn -0.9299 -0.2342 0.2837
vn -0.7274 -0.6758 -0.1189
vn 0.2174 -0.9761 -0.0060
vn -0.1313 -0.0331 0.9908
vn 0.1313 0.0331 -0.9908
vn -0.5114 -0.1288 0.8497
vn 0.6532 0.1645 -0.7391
vn -0.0721 0.9935 0.0881
vn -0.3562 -0.1795 0.9170
vn 0.8773 0.1833 -0.4436
usemtl Master_Mat
s off
f 9/1/1 10/2/1 4/3/1 3/4/1
f 13/5/2 14/6/2 8/7/2 7/8/2
f 11/9/3 12/10/3 6/11/3 5/12/3
f 15/13/4 16/14/4 2/15/4 1/16/4
f 18/17/5 11/18/5 5/19/5 15/20/5
f 17/21/6 10/2/6 2/15/6 16/14/6
f 14/6/7 4/3/7 10/2/7 17/21/7
f 13/22/5 7/23/5 11/18/5 18/17/5
f 7/8/8 8/7/8 12/10/8 11/9/8
f 1/16/1 2/15/1 10/2/1 9/1/1
f 3/24/5 13/22/5 18/17/5 9/25/5
f 8/7/9 14/6/9 17/21/9 12/10/9
f 12/10/10 17/21/10 16/14/10 6/11/10
f 9/25/5 18/17/5 15/20/5 1/26/5
f 5/27/11 6/11/11 16/14/11 15/13/11
f 3/4/12 4/3/12 14/6/12 13/5/12
f 19/28/1 20/29/1 22/30/1 21/31/1
f 21/32/13 22/33/13 26/34/13 25/35/13
f 25/36/14 26/37/14 24/38/14 23/39/14
f 23/40/15 24/41/15 20/42/15 19/43/15
f 21/44/5 25/45/5 23/46/5 19/47/5
f 26/48/16 22/49/16 20/50/16 24/51/16
f 27/52/1 28/53/1 30/54/1 29/55/1
f 29/55/13 30/54/13 34/56/13 33/57/13
f 33/57/14 34/56/14 32/58/14 31/59/14
f 31/60/15 32/61/15 28/53/15 27/52/15
f 29/55/5 33/57/5 31/60/5 27/52/5
f 34/56/16 30/54/16 28/53/16 32/61/16
f 35/62/1 36/63/1 38/64/1 37/65/1
f 37/66/13 38/67/13 42/68/13 41/69/13
f 41/70/14 42/71/14 40/72/14 39/73/14
f 39/74/15 40/75/15 36/76/15 35/77/15
f 37/78/5 41/79/5 39/80/5 35/81/5
f 42/82/16 38/83/16 36/84/16 40/85/16
f 43/86/1 44/87/1 46/88/1 45/89/1
f 45/89/13 46/88/13 50/90/13 49/91/13
f 49/91/14 50/90/14 48/92/14 47/93/14
f 47/94/15 48/95/15 44/87/15 43/86/15
f 45/89/5 49/91/5 47/94/5 43/86/5
f 50/90/16 46/88/16 44/87/16 48/95/16
f 51/96/1 52/97/1 54/98/1 53/99/1
f 53/99/13 54/98/13 58/100/13 57/101/13
f 57/101/14 58/100/14 56/102/14 55/103/14
f 51/104/17 55/103/17 62/105/17 59/106/17
f 53/99/5 57/101/5 55/103/5 51/104/5
f 58/100/16 54/98/16 52/97/16 56/102/16
f 61/107/18 60/108/18 64/109/18 65/110/18
f 56/102/19 52/97/19 60/108/19 61/107/19
f 55/103/14 56/102/14 61/107/14 62/105/14
f 52/97/1 51/96/1 59/111/1 60/108/1
f 66/112/20 65/110/20 64/109/20 63/113/20
f 62/105/21 61/107/21 65/110/21 66/112/21
f 59/106/22 62/105/22 66/112/22 63/113/22
f 60/108/23 59/111/23 63/114/23 64/109/23
f 67/115/1 68/116/1 70/117/1 69/118/1
f 69/118/13 70/117/13 74/119/13 73/120/13
f 73/120/14 74/119/14 72/121/14 71/122/14
f 67/123/17 71/122/17 78/124/17 75/125/17
f 69/118/5 73/120/5 71/122/5 67/123/5
f 74/119/16 70/117/16 68/116/16 72/121/16
f 77/126/18 76/127/18 80/128/18 81/129/18
f 72/121/19 68/116/19 76/127/19 77/126/19
f 71/122/14 72/121/14 77/126/14 78/124/14
f 68/116/1 67/115/1 75/130/1 76/127/1
f 82/131/20 81/129/20 80/128/20 79/132/20
f 78/124/21 77/126/21 81/129/21 82/131/21
f 75/125/22 78/124/22 82/131/22 79/132/22
f 76/127/23 75/130/23 79/133/23 80/128/23
f 83/134/1 84/135/1 86/136/1 85/137/1
f 85/137/13 86/136/13 90/138/13 89/139/13
f 89/139/14 90/138/14 88/140/14 87/141/14
f 83/142/17 87/141/17 94/143/17 91/144/17
f 85/137/5 89/139/5 87/141/5 83/142/5
f 90/138/16 86/136/16 84/135/16 88/140/16
f 93/145/18 92/146/18 96/147/18 97/148/18
f 88/140/19 84/135/19 92/146/19 93/145/19
f 87/141/14 88/140/14 93/145/14 94/143/14
f 84/135/1 83/134/1 91/149/1 92/146/1
f 98/150/20 97/148/20 96/147/20 95/151/20
f 94/143/21 93/145/21 97/148/21 98/150/21
f 91/144/22 94/143/22 98/150/22 95/151/22
f 92/146/23 91/149/23 95/152/23 96/147/23
f 99/153/14 100/154/14 102/155/14 101/156/14
f 101/156/15 102/155/15 106/157/15 105/158/15
f 105/158/1 106/157/1 104/159/1 103/160/1
f 99/161/24 103/160/24 110/162/24 107/163/24
f 101/156/5 105/158/5 103/160/5 99/161/5
f 106/157/16 102/155/16 100/154/16 104/159/16
f 109/164/25 108/165/25 112/166/25 113/167/25
f 104/159/26 100/154/26 108/165/26 109/164/26
f 103/160/1 104/159/1 109/164/1 110/162/1
f 100/154/14 99/153/14 107/168/14 108/165/14
f 114/169/27 113/167/27 112/166/27 111/170/27
f 110/162/28 109/164/28 113/167/28 114/169/28
f 107/163/29 110/162/29 114/169/29 111/170/29
f 108/165/30 107/168/30 111/171/30 112/166/30
f 115/172/14 116/173/14 118/174/14 117/175/14
f 117/175/15 118/174/15 122/176/15 121/177/15
f 121/177/1 122/176/1 120/178/1 119/179/1
f 115/180/24 119/179/24 126/181/24 123/182/24
f 117/175/5 121/177/5 119/179/5 115/180/5
f 122/176/16 118/174/16 116/173/16 120/178/16
f 125/183/25 124/184/25 128/185/25 129/186/25
f 120/178/26 116/173/26 124/184/26 125/183/26
f 119/179/1 120/178/1 125/183/1 126/181/1
f 116/173/14 115/172/14 123/187/14 124/184/14
f 130/188/27 129/186/27 128/185/27 127/189/27
f 126/181/28 125/183/28 129/186/28 130/188/28
f 123/182/29 126/181/29 130/188/29 127/189/29
f 124/184/30 123/187/30 127/190/30 128/185/30
f 131/191/14 132/192/14 134/193/14 133/194/14
f 133/194/15 134/193/15 138/195/15 137/196/15
f 137/196/1 138/195/1 136/197/1 135/198/1
f 131/199/24 135/198/24 142/200/24 139/201/24
f 133/194/5 137/196/5 135/198/5 131/199/5
f 138/195/16 134/193/16 132/192/16 136/197/16
f 141/202/25 140/203/25 144/204/25 145/205/25
f 136/197/26 132/192/26 140/203/26 141/202/26
f 135/198/1 136/197/1 141/202/1 142/200/1
f 132/192/14 131/191/14 139/206/14 140/203/14
f 146/207/27 145/205/27 144/204/27 143/208/27
f 142/200/28 141/202/28 145/205/28 146/207/28
f 139/201/29 142/200/29 146/207/29 143/208/29
f 140/203/30 139/206/30 143/209/30 144/204/30
f 147/210/31 148/211/31 150/212/31 149/213/31
f 149/213/32 150/212/32 154/214/32 153/215/32
f 154/214/16 152/216/16 158/217/16 155/218/16
f 151/219/33 152/216/33 148/211/33 147/210/33
f 149/213/5 153/215/5 151/220/5 147/210/5
f 154/214/16 150/212/16 148/211/16 152/216/16
f 153/215/34 154/214/34 155/218/34 156/221/34
f 152/216/35 151/219/35 157/222/35 158/217/35
f 151/220/5 153/215/5 156/221/5 157/223/5
f 157/223/36 156/221/36 164/224/36 165/225/36
f 158/217/37 157/222/37 165/226/37 166/227/37
f 156/221/38 155/218/38 163/228/38 164/224/38
f 155/218/39 158/217/39 166/227/39 163/228/39
f 163/228/16 166/227/16 170/229/16 167/230/16
f 167/230/40 170/229/40 159/231/40 171/232/40 162/233/40
f 164/224/41 163/228/41 167/230/41 168/234/41
f 166/227/42 165/226/42 169/235/42 170/229/42
f 165/225/5 164/224/5 168/234/5 169/236/5
f 168/234/43 167/230/43 162/233/43 161/237/43
f 170/229/44 169/235/44 160/238/44 159/231/44
f 169/236/45 168/234/45 161/237/45 172/239/45 160/238/45
f 160/238/46 172/239/46 171/232/46 159/231/46
f 172/239/47 161/237/47 162/233/47 171/232/47
f 173/240/48 174/241/48 176/242/48 175/243/48
f 175/243/49 176/242/49 180/244/49 179/245/49
f 180/246/50 178/247/50 184/248/50 181/249/50
f 177/250/51 178/247/51 174/241/51 173/240/51
f 175/243/52 179/245/52 177/250/52 173/240/52
f 180/246/50 176/242/50 174/241/50 178/247/50
f 179/245/53 180/244/53 181/251/53 182/252/53
f 178/247/54 177/250/54 183/253/54 184/248/54
f 177/250/52 179/245/52 182/252/52 183/253/52
f 183/253/55 182/252/55 190/254/55 191/255/55
f 184/248/56 183/253/56 191/255/56 192/256/56
f 182/252/57 181/251/57 189/257/57 190/254/57
f 181/249/58 184/248/58 192/256/58 189/258/58
f 189/258/50 192/256/50 196/259/50 193/260/50
f 193/260/59 196/259/59 185/261/59 197/262/59 188/263/59
f 190/254/60 189/257/60 193/264/60 194/265/60
f 192/256/61 191/255/61 195/266/61 196/259/61
f 191/255/52 190/254/52 194/265/52 195/266/52
f 194/265/62 193/264/62 188/263/62 187/267/62
f 196/259/63 195/266/63 186/268/63 185/261/63
f 195/266/64 194/265/64 187/267/64 198/269/64 186/268/64
f 186/268/65 198/269/65 197/262/65 185/261/65
f 198/269/66 187/267/66 188/263/66 197/262/66
