# Blender v2.92.0 OBJ File: 'Rocks.blend'
# www.blender.org
mtllib Big Rock_3.mtl
o Large_Rock_2_Cube.017
v -4.907403 -4.083307 70.627563
v -4.939747 -1.541814 69.241318
v -4.328893 -4.245488 65.554344
v -4.943976 0.287360 68.753555
v -4.993125 -3.581945 64.446487
v -5.565670 -3.515367 62.258030
v -4.234284 -4.225923 62.945969
v -6.469041 -3.826191 59.278786
v -5.908968 1.378541 59.440380
v -4.409063 -4.511246 70.405464
v -4.090701 -4.003745 71.054955
v 0.236761 -4.225739 71.138016
v 0.028142 -4.274098 64.547371
v -4.862930 1.472466 69.583229
v -5.002498 4.337736 64.496193
v -5.975930 1.976001 63.644276
v -4.942314 4.309785 59.249008
v -4.289620 5.073430 69.035782
v -3.684127 7.355707 69.339279
v -3.390947 8.122210 68.802292
v -4.063144 8.436118 64.198036
v -4.481108 7.035794 52.669556
v -3.154277 4.960770 69.636383
v -1.792113 9.758487 64.052361
v -1.528712 9.752764 58.585159
v -6.935921 -3.017168 51.333130
v -6.301567 -4.082475 51.892467
v -6.920879 -3.838713 48.295643
v -0.821363 -4.317766 50.902214
v -6.319608 -4.095480 48.179947
v -5.246100 -3.609526 45.480629
v -3.535193 -4.412076 45.155449
v -3.632535 -3.882273 44.456947
v -1.079191 -3.745558 43.983707
v -6.139989 0.517512 49.504951
v -4.575348 6.065338 50.952698
v -4.111877 4.387195 49.532776
v -4.194593 2.464781 48.738976
v -4.690259 4.585990 50.238178
v -3.914538 7.960152 53.998730
v -4.021507 1.114559 47.811333
v -2.623532 9.054327 56.806541
v 2.888821 1.281128 69.793999
v 4.244824 -3.906669 69.037529
v 7.484434 -3.970063 68.413300
v 6.706609 -0.997449 68.207657
v 6.390538 0.823671 68.261337
v 8.654556 -3.764078 65.315689
v 8.867947 -3.278095 66.044777
v 9.452590 -3.500685 63.216206
v 9.637758 -2.802891 62.708546
v 6.891182 0.994240 61.578926
v 6.682046 1.055543 58.229706
v 3.778987 7.271118 69.411339
v 2.892469 8.199583 68.837570
v 4.017600 8.546118 64.754906
v 3.472731 9.644869 63.688938
v 5.526910 2.906419 69.193230
v 4.271131 8.843235 62.963840
v 6.344792 1.641756 64.606522
v 5.571993 6.197002 62.768173
v 1.248809 -4.435668 44.973083
v 2.031302 -3.981315 44.583771
v -0.803692 1.142069 47.834442
v 2.527647 -4.281231 49.543880
v 3.224730 -4.141126 45.845253
v 3.526413 -3.729673 45.417740
v 4.492176 -3.850073 47.646812
v 3.459784 -0.794607 48.114994
v 8.671186 -3.784873 56.644516
v 7.282295 -1.897417 55.129169
v 6.120959 0.139620 53.444107
v 7.075843 -3.583049 53.713501
v 8.882873 -3.230513 56.651669
v 3.483190 3.278227 49.777275
v 1.295164 6.827352 51.117714
v 3.934362 8.557148 54.317776
v 5.622914 5.802208 58.215855
v 5.619284 3.574634 54.168297
v 5.051337 1.929005 51.526360
v 4.783502 5.515709 51.342293
v 3.403245 0.589956 47.945732
vn -0.6638 -0.7461 -0.0518
vn -0.6635 -0.7464 -0.0518
vn -0.6616 -0.7481 -0.0515
vn -0.5534 -0.7943 0.2507
vn -0.0518 -0.7744 0.6305
vn -0.0053 0.2588 0.9659
vn -0.0141 0.2514 0.9678
vn 0.0557 -0.9984 -0.0115
vn 0.0105 -0.9999 -0.0126
vn 0.0308 -0.9995 0.0000
vn -0.0373 -0.9993 -0.0073
vn -0.9322 0.3608 -0.0277
vn -0.9229 0.3849 -0.0126
vn -0.9446 0.3273 -0.0245
vn -0.9649 0.2357 0.1158
vn -0.9763 0.2067 0.0644
vn -0.9703 0.2112 0.1181
vn -0.9738 0.2208 0.0540
vn -0.8798 0.4479 0.1590
vn -0.9816 0.1910 0.0026
vn -0.0111 0.0601 0.9981
vn 0.0071 0.0759 0.9971
vn -0.0082 0.1213 0.9926
vn -0.5014 0.8645 0.0358
vn -0.5654 0.8238 -0.0410
vn -0.5060 0.8610 0.0512
vn 0.0216 0.9998 -0.0000
vn 0.0757 0.9957 -0.0531
vn 0.0920 0.9934 -0.0691
vn -0.8676 -0.4957 0.0398
vn -0.8737 -0.4806 0.0754
vn -0.8794 -0.4606 0.1202
vn -0.0392 -0.9990 0.0206
vn -0.0535 -0.9982 0.0265
vn -0.0030 -0.9997 0.0260
vn -0.0297 -0.9989 0.0351
vn -0.4078 0.4868 -0.7725
vn -0.6351 0.4262 -0.6442
vn -0.6283 0.4691 -0.6206
vn -0.6337 0.4126 -0.6543
vn -0.1814 0.5383 -0.8230
vn -0.0555 -0.8134 -0.5791
vn -0.0678 -0.7994 -0.5969
vn -0.0301 -0.8404 -0.5411
vn 0.1193 0.5850 -0.8022
vn 0.0237 0.6038 -0.7968
vn 0.0349 0.6343 -0.7723
vn -0.9654 0.2602 -0.0171
vn -0.9664 0.2572 -0.0053
vn -0.9817 0.1900 -0.0087
vn -0.9410 0.3382 -0.0160
vn -0.6215 0.3441 -0.7038
vn -0.6575 0.3523 -0.6660
vn -0.6684 0.3617 -0.6500
vn -0.5853 0.8095 -0.0463
vn -0.2941 0.8389 -0.4580
vn 0.0014 0.9315 -0.3637
vn -0.0445 0.9312 -0.3617
vn -0.0640 0.9135 -0.4017
vn -0.0608 0.6349 -0.7702
vn -0.0558 0.9406 -0.3350
vn -0.0827 0.9127 -0.4003
vn 0.4646 -0.0077 0.8855
vn 0.4215 -0.0220 0.9066
vn 0.4128 -0.0109 0.9108
vn 0.0290 -0.9981 0.0544
vn 0.3800 -0.0073 0.9250
vn 0.0656 -0.9950 -0.0757
vn 0.0420 -0.9991 -0.0025
vn 0.0653 -0.9974 -0.0318
vn 0.8073 0.5898 0.0196
vn 0.8346 0.5468 -0.0664
vn 0.8120 0.5836 -0.0126
vn 0.9721 -0.1057 0.2093
vn 0.9429 -0.3193 -0.0950
vn 0.9418 -0.3223 -0.0950
vn 0.9313 -0.3516 -0.0953
vn -0.0097 0.5264 0.8502
vn -0.0112 0.5179 0.8554
vn -0.0022 0.5697 0.8219
vn 0.0138 0.9531 0.3023
vn -0.0134 0.9631 0.2688
vn 0.0111 0.9542 0.2990
vn 0.1314 0.9854 -0.1079
vn 0.6843 0.7274 -0.0507
vn 0.2029 0.0324 0.9787
vn 0.3601 -0.2525 0.8981
vn 0.9795 0.1910 0.0634
vn 0.9847 0.1721 0.0262
vn 0.9851 0.1702 0.0258
vn 0.9244 0.3415 0.1699
vn 0.9350 0.3130 0.1669
vn 0.8951 0.3971 0.2030
vn 0.9757 0.2009 0.0876
vn 0.9720 0.2333 -0.0266
vn 0.9707 0.2309 -0.0669
vn 0.9645 0.2484 -0.0893
vn 0.8897 0.4543 -0.0455
vn 0.8720 0.4884 -0.0326
vn 0.8833 0.4671 -0.0407
vn 0.9647 0.2573 -0.0555
vn 0.0961 -0.9949 0.0313
vn 0.0475 -0.9987 0.0205
vn 0.0778 -0.7225 -0.6869
vn 0.1123 0.5751 -0.8104
vn 0.3747 -0.8069 -0.4567
vn 0.3215 -0.8525 -0.4122
vn 0.3972 -0.7851 -0.4753
vn 0.2824 0.6526 -0.7031
vn 0.1723 -0.9850 -0.0048
vn 0.2033 -0.9790 -0.0119
vn 0.5952 -0.7462 -0.2982
vn 0.8297 0.3473 -0.4371
vn 0.8478 0.3478 -0.4004
vn 0.8671 0.3476 -0.3569
vn 0.0323 -0.9987 0.0394
vn 0.7814 0.3424 -0.5217
vn 0.9000 0.2029 -0.3858
vn 0.9039 0.2047 -0.3755
vn 0.9001 0.2030 -0.3855
vn 0.8978 0.2020 -0.3913
vn 0.9304 -0.3540 -0.0953
vn 0.8261 -0.3094 -0.4710
vn 0.0951 0.5586 -0.8240
vn 0.9387 0.3212 -0.1252
vn 0.9508 0.2852 -0.1209
vn 0.9451 0.3214 -0.0588
vn 0.2298 0.4646 -0.8552
vn 0.9721 0.0365 -0.2317
vn 0.8824 -0.2231 -0.4142
vn 0.8141 0.3980 -0.4229
vn 0.8152 0.3709 -0.4448
vn 0.8152 0.3364 -0.4714
vn 0.8142 0.3101 -0.4908
vn -0.9972 0.0171 0.0729
vn -0.9941 0.0767 0.0767
vn -0.9977 0.0241 0.0630
vn -0.9999 -0.0054 0.0134
vn -0.6615 -0.7482 -0.0515
vn -0.8414 -0.5001 0.2049
vn -0.9845 -0.1659 0.0568
vn -0.9850 -0.1693 0.0340
vn -0.9849 -0.1729 0.0089
vn -0.9835 -0.1624 0.0800
vn -0.4613 -0.8869 -0.0234
vn -0.9610 0.0843 0.2635
vn -0.9638 0.0790 0.2546
vn -0.9582 0.0892 0.2717
vn -0.2858 -0.6821 0.6731
vn 0.0696 -0.9961 -0.0534
vn -0.1090 -0.9939 -0.0151
vn -0.0203 0.2463 0.9690
vn -0.4420 0.2032 0.8737
vn -0.0272 -0.0019 0.9996
vn -0.0003 0.0423 0.9991
vn -0.4671 0.0063 0.8842
vn -0.4926 0.8604 0.1306
vn -0.9901 0.1396 -0.0116
vn -0.0014 0.5741 0.8188
vn -0.5080 0.8610 -0.0254
vn 0.0436 0.9400 0.3385
vn -0.8588 -0.5123 -0.0017
vn -0.9799 0.1914 -0.0566
vn -0.4286 -0.8440 -0.3224
vn -0.4235 -0.8471 -0.3209
vn -0.4492 -0.8309 -0.3282
vn -0.8346 0.2811 -0.4737
vn -0.4516 -0.8294 -0.3289
vn -0.4437 -0.7427 -0.5015
vn -0.0245 -0.8460 -0.5325
vn -0.9921 0.1046 0.0689
vn -0.9947 0.1001 -0.0228
vn -0.9957 0.0895 -0.0251
vn -0.6666 0.3655 -0.6496
vn -0.8265 0.5616 -0.0383
vn -0.9554 0.0941 0.2799
vn -0.0966 0.8544 -0.5105
vn 0.0505 0.5699 -0.8201
vn 0.0242 0.6251 -0.7802
vn 0.1901 0.1172 0.9747
vn 0.7256 -0.6514 0.2219
vn 0.7185 -0.6571 0.2277
vn 0.7384 -0.6405 0.2108
vn 0.8033 0.2477 0.5416
vn 0.8248 0.4924 0.2780
vn 0.8212 0.5010 0.2732
vn 0.8198 0.5041 0.2715
vn 0.7461 -0.6338 0.2041
vn 0.8121 0.5215 0.2617
vn 0.8423 0.5297 -0.0995
vn 0.8584 0.4930 -0.1418
vn 0.6260 0.7434 0.2356
vn 0.3046 -0.8654 -0.3978
vn 0.9209 0.3615 0.1462
vn 0.8954 0.4015 0.1925
vn 0.7430 0.6180 0.2572
vn 0.7532 0.6107 0.2444
vn 0.7682 0.5993 0.2251
vn 0.7807 0.5892 0.2082
vn 0.4053 0.0434 0.9131
vn 0.8858 0.4210 0.1952
vn 0.8949 0.4436 -0.0495
vn 0.9679 0.2160 0.1285
vn 0.1986 0.5413 -0.8170
vn 0.9292 -0.0072 -0.3694
vn 0.9164 -0.0115 -0.4002
vn 0.9194 -0.0021 -0.3933
vn 0.0543 -0.9928 0.1071
vn 0.1824 -0.9826 -0.0344
vn 0.1427 -0.9791 -0.1451
vn 0.8136 0.3464 -0.4670
vn 0.7736 0.5269 -0.3520
vn 0.3071 0.7079 -0.6360
vn 0.9129 0.3675 -0.1774
vn 0.9147 0.3633 -0.1768
vn 0.9165 0.3591 -0.1762
vn 0.8934 0.0384 -0.4475
vn 0.8904 0.0469 -0.4528
vn 0.9110 0.3721 -0.1780
vn -0.3919 -0.9200 0.0051
vn -0.8362 0.1078 0.5378
vn 0.0866 0.3908 -0.9164
vn -0.9464 0.1966 0.2561
usemtl None
s 1
f 10//1 1//2 3//3
f 7//4 6//4 8//4
f 11//5 10//5 12//5
f 11//6 12//7 14//7
f 12//8 3//9 13//10
f 3//9 7//11 13//10
f 16//12 15//13 17//14
f 19//15 15//16 18//17
f 15//16 19//15 21//18
f 19//19 20//19 21//19
f 21//18 17//20 15//16
f 23//21 54//22 19//23
f 24//24 42//25 21//26
f 24//27 57//28 25//29
f 27//30 26//31 28//32
f 27//33 30//34 29//35
f 32//36 29//35 30//34
f 41//37 33//37 31//37
f 41//38 31//39 35//40
f 34//41 33//41 41//41
f 32//42 33//43 34//44
f 34//45 41//46 64//47
f 35//48 9//49 17//14
f 9//49 35//48 26//50
f 35//48 17//14 39//51
f 35//40 38//52 41//38
f 35//40 37//53 38//52
f 35//40 39//54 37//53
f 21//26 42//25 40//55
f 22//56 40//56 36//56
f 40//57 42//58 76//59
f 37//60 36//60 76//60
f 25//61 77//62 42//58
f 77//62 76//59 42//58
f 12//63 44//64 43//65
f 44//66 12//8 13//10
f 44//64 46//67 43//65
f 48//68 45//69 13//10
f 48//68 13//10 50//70
f 60//71 51//72 52//73
f 51//74 49//74 50//74
f 51//75 50//76 74//77
f 54//78 55//79 20//80
f 20//81 55//82 57//83
f 57//28 77//84 25//29
f 57//85 59//85 77//85
f 43//86 58//86 54//86
f 58//87 43//87 47//87
f 60//88 47//89 46//90
f 58//91 47//92 61//93
f 61//94 47//89 60//88
f 61//95 53//96 78//97
f 61//98 78//99 77//100
f 61//95 52//101 53//96
f 65//102 29//35 32//36
f 65//102 32//36 62//103
f 63//104 62//104 34//104
f 82//105 34//45 64//47
f 66//106 63//107 67//108
f 67//109 63//109 69//109
f 66//110 68//111 65//102
f 68//112 66//112 67//112
f 69//113 68//114 67//115
f 50//70 29//35 70//116
f 71//117 74//117 73//117
f 72//118 71//119 73//120
f 72//118 73//120 68//121
f 50//76 70//122 74//77
f 73//123 74//123 70//123
f 82//105 64//47 75//124
f 77//125 79//126 81//127
f 81//128 75//128 76//128
f 79//126 78//97 53//96
f 77//125 78//97 79//126
f 79//129 53//129 80//129
f 79//130 75//130 81//130
f 79//131 80//132 75//133
f 75//133 80//132 82//134
f 2//135 14//136 4//137
f 5//138 1//138 2//138
f 3//3 1//2 5//139
f 3//140 5//140 6//140
f 5//141 16//142 9//143
f 5//141 2//144 16//142
f 7//145 3//145 6//145
f 6//146 5//147 9//148
f 10//149 11//149 1//149
f 12//8 10//150 3//9
f 29//35 7//11 8//151
f 14//7 12//7 43//152
f 13//10 7//11 29//35
f 4//137 14//136 15//16
f 17//14 9//49 16//12
f 23//153 18//153 14//153
f 14//154 43//155 23//21
f 19//156 18//156 23//156
f 14//136 18//17 15//16
f 21//26 20//157 24//24
f 17//20 21//18 22//158
f 23//21 43//155 54//22
f 20//80 19//159 54//78
f 42//25 24//24 25//160
f 24//161 20//81 57//83
f 27//30 8//162 26//31
f 28//163 26//50 35//48
f 29//35 8//151 27//33
f 30//164 28//165 31//166
f 35//167 31//167 28//167
f 32//168 30//164 31//166
f 33//169 32//169 31//169
f 34//44 62//170 32//42
f 8//171 9//49 26//50
f 17//20 36//172 39//173
f 39//54 36//174 37//53
f 22//175 21//175 40//175
f 9//148 8//176 6//146
f 36//172 17//20 22//158
f 36//177 40//177 76//177
f 38//178 75//179 41//46
f 64//47 41//46 75//179
f 45//69 44//66 13//10
f 44//180 45//180 46//180
f 50//70 13//10 29//35
f 49//181 45//182 48//183
f 45//184 49//184 46//184
f 60//185 46//186 51//187
f 49//181 48//183 50//188
f 49//189 51//187 46//186
f 52//73 51//72 53//190
f 53//190 51//72 74//191
f 55//192 54//192 56//192
f 62//193 63//107 66//106
f 54//194 58//91 56//195
f 55//196 56//197 57//198
f 59//199 57//198 56//197
f 43//65 46//67 47//200
f 56//195 58//91 61//93
f 59//201 56//195 61//93
f 59//202 61//98 77//100
f 61//94 60//88 52//203
f 82//105 63//204 34//45
f 66//110 65//102 62//103
f 63//205 82//206 69//207
f 65//102 73//208 29//35
f 68//111 73//209 65//102
f 73//210 70//210 29//210
f 72//211 68//114 69//113
f 53//212 74//212 71//212
f 77//213 81//213 76//213
f 53//214 72//215 80//216
f 69//207 80//217 72//218
f 82//206 80//217 69//207
f 53//214 71//219 72//215
f 27//220 28//220 30//220
f 1//221 11//221 14//221 2//221
f 75//222 38//222 37//222 76//222
f 15//223 16//223 2//223 4//223
