# Blender v2.92.0 OBJ File: 'Rocks.blend'
# www.blender.org
mtllib Big Rock_1.mtl
o Large_Rock_3_Cube.024
v -1.681049 -1.958590 139.332642
v -1.769854 0.552678 139.361420
v -3.943235 -0.601345 135.475418
v -2.312160 -1.044689 135.704086
v -2.111229 -1.903236 136.065643
v 1.053382 -2.018179 135.617493
v -4.698971 -1.065814 131.299194
v -2.990810 -1.927875 127.669746
v -3.066214 -1.188762 127.511169
v -5.947004 1.460722 127.233360
v -5.224286 -0.803052 127.764709
v -4.603780 -2.842011 128.041290
v -4.706705 -1.058645 128.019867
v -0.740721 -2.172727 127.007523
v -4.401495 -2.877438 117.923111
v -4.351020 -2.498841 119.237717
v 2.325149 -1.883094 118.822418
v -4.350818 -2.426040 111.799629
v -4.456810 0.515880 118.245956
v -3.983360 8.907578 134.007431
v -1.860543 4.886032 137.094208
v -1.676381 9.996547 134.965546
v -4.285947 10.686536 132.194183
v -4.642089 11.112698 130.375610
v -1.951157 10.221454 134.100220
v -2.398656 11.204386 130.381561
v -4.344374 13.174706 130.047104
v -2.496123 13.245680 129.949905
v -1.997842 11.807992 131.956161
v -2.231210 11.925739 130.277283
v -4.922177 3.196592 126.931229
v -3.098856 3.981332 126.602135
v -4.530440 8.508974 126.992706
v -3.110687 8.266101 126.744019
v -2.642003 11.958258 126.987251
v -4.272117 13.240393 127.252731
v -2.495101 13.211394 127.226273
v -2.974489 11.818606 125.690659
v -1.391550 13.727971 124.285576
v -3.038954 2.717057 118.079521
v -2.872155 13.777856 122.622665
v -3.803757 2.041059 118.199539
v -4.037088 5.310089 111.032982
v -4.199189 5.152590 117.293556
v -3.077023 5.551463 117.046532
v -3.039914 5.451475 112.033058
v -2.943147 13.800899 117.874283
v -2.804399 15.825624 117.741028
v -2.931605 17.789991 113.069748
v -4.141536 -3.188000 109.075859
v -4.189623 3.292098 109.208771
v -2.997718 17.139347 112.192490
v 2.263480 17.305372 112.318535
v 0.965478 -1.845916 139.425629
v 1.083679 0.786693 139.400665
v 1.645435 -1.563293 135.790237
v 5.109185 -2.018964 135.590530
v 2.740625 -2.491951 115.976349
v 2.881660 -1.123103 118.292267
v 4.446676 0.754922 135.661880
v 5.264150 -2.021554 131.826645
v 6.897839 -2.133898 125.508392
v 6.525646 -1.710358 118.541542
v 6.637015 -1.791394 123.638000
v 4.600058 7.978080 119.641472
v 1.098009 8.384014 135.747009
v 1.361416 6.416627 135.653244
v 1.309202 11.729079 132.177628
v 2.813527 6.233813 135.648666
v 2.429469 6.513093 125.812134
v 2.362670 9.594870 125.208267
v 4.510404 8.163093 125.253433
v 2.160419 11.701989 125.636429
v 2.341748 9.618915 119.300163
v 2.339598 7.270866 115.051834
v 3.876864 7.658817 114.491776
v 0.490441 15.893503 117.772263
v 2.203565 16.531532 116.191727
v 2.041425 17.765493 113.130463
v 4.810870 4.411764 135.455200
v 4.836032 6.331905 125.585762
v 5.263078 2.528188 130.747101
v 4.746605 6.293360 133.726318
v 5.399187 2.681535 125.913399
v 6.749420 2.335946 125.495033
v 5.831231 2.551306 125.031914
v 4.925810 4.940511 118.919609
v 2.837963 -3.104989 109.120438
v 1.892349 6.017269 112.089706
v 2.471356 3.426133 109.152100
v 2.823432 6.036095 110.814346
v 2.261352 6.430991 112.269241
v 2.176393 12.698607 123.026718
v 1.100501 13.714994 123.906639
v 1.095181 13.707343 124.251213
v 2.138589 12.857368 124.826721
v 1.897800 13.674053 117.718102
vn -0.0240 -0.0006 0.9997
vn -0.0367 -0.9993 -0.0028
vn -0.0842 -0.9960 0.0315
vn -0.0132 -0.9998 0.0114
vn 0.0061 -0.9998 0.0206
vn -0.9842 0.0229 0.1756
vn -0.9819 0.0214 0.1882
vn -0.9837 0.0220 0.1787
vn -0.9886 -0.0839 0.1254
vn -0.9924 -0.0813 0.0928
vn -0.9918 -0.0877 0.0934
vn -0.4183 0.0578 0.9065
vn -0.4481 -0.0151 0.8939
vn -0.4389 0.0081 0.8985
vn -0.9794 0.2010 -0.0203
vn 0.1627 -0.9866 0.0110
vn 0.1725 -0.9850 0.0069
vn 0.1518 -0.9883 0.0155
vn 0.1437 -0.9894 0.0188
vn -0.1034 0.1441 0.9841
vn -0.1354 0.1494 0.9795
vn -0.1419 0.1504 0.9784
vn -0.0991 0.1434 0.9847
vn -0.9903 -0.0045 0.1389
vn -0.9918 0.0477 0.1186
vn -0.4248 0.6098 0.6691
vn -0.9921 0.0483 0.1161
vn -0.9245 0.1745 0.3389
vn -0.9811 0.0236 0.1923
vn -0.9789 0.0380 0.2006
vn 0.0091 0.9740 0.2265
vn -0.0232 0.9684 0.2485
vn -0.0251 0.9680 0.2498
vn -0.7887 0.4859 0.3767
vn -0.9945 0.0820 -0.0647
vn -0.9845 0.1220 -0.1264
vn -0.9942 0.0839 -0.0676
vn -0.0372 0.9991 0.0225
vn -0.0181 0.9998 0.0099
vn -0.0040 1.0000 0.0007
vn 0.0053 0.1816 0.9834
vn 0.0414 0.2483 0.9678
vn 0.0049 0.1893 0.9819
vn -0.9651 0.2000 0.1690
vn -0.9641 0.2076 0.1658
vn -0.9606 0.2299 0.1564
vn -0.9580 0.2441 0.1503
vn -0.1853 0.0299 -0.9822
vn -0.1637 0.0518 -0.9851
vn -0.1660 0.0531 -0.9847
vn -0.9997 0.0137 -0.0190
vn -0.9923 0.0014 -0.1237
vn -0.9998 0.0144 -0.0105
vn -0.9658 0.1070 0.2361
vn -0.0140 0.0556 -0.9984
vn 0.0161 0.9998 -0.0126
vn -0.4891 0.7424 0.4578
vn 0.9667 0.2269 -0.1185
vn 0.0383 0.9992 0.0084
vn 0.0458 0.9989 0.0134
vn 0.0596 0.9980 0.0225
vn 0.0182 0.5766 0.8168
vn 0.0202 0.5789 0.8151
vn 0.0218 0.5808 0.8138
vn -0.6671 0.7226 -0.1811
vn -0.9999 0.0128 0.0026
vn -1.0000 0.0018 0.0063
vn -0.4160 0.2051 0.8859
vn -0.0866 0.2683 0.9594
vn -0.1155 0.9929 -0.0296
vn -0.1200 0.9926 -0.0207
vn -0.1168 0.9929 -0.0239
vn 0.0338 0.0633 0.9974
vn 0.0087 0.0084 0.9999
vn 0.0223 0.0381 0.9990
vn -0.9996 0.0244 0.0155
vn -0.9978 0.0526 0.0412
vn -0.9993 0.0276 0.0258
vn -0.1075 0.9923 -0.0608
vn 0.0409 -0.9981 0.0461
vn 0.5993 -0.7990 0.0500
vn 0.9861 0.0185 0.1652
vn 0.9827 -0.0424 0.1805
vn 0.9861 0.0169 0.1656
vn 0.0061 -0.3620 0.9322
vn 0.1132 -0.9681 0.2236
vn -0.0327 -0.5556 -0.8308
vn 0.8543 -0.4686 0.2250
vn 0.9984 0.0560 0.0092
vn 0.9980 0.0472 0.0411
vn 0.9975 0.0363 0.0603
vn 0.9972 0.0325 0.0669
vn 0.4526 0.0124 -0.8916
vn 0.0802 0.0758 -0.9939
vn 0.0685 0.0798 -0.9945
vn 0.0356 0.0910 -0.9952
vn 0.9898 0.0674 0.1258
vn 0.9858 0.0986 0.1360
vn 0.9861 0.0906 0.1396
vn 0.9871 0.0658 0.1460
vn 0.0418 0.0014 0.9991
vn 0.0385 0.0220 0.9990
vn 0.0053 0.0174 0.9998
vn 0.0559 -0.0123 0.9984
vn 0.1352 0.0186 0.9906
vn 0.9918 0.0553 0.1151
vn 0.9815 0.0571 0.1827
vn 0.1075 0.1945 0.9750
vn 0.1064 0.1958 0.9748
vn 0.9981 0.0608 0.0086
vn 0.9982 0.0590 -0.0065
vn 0.9988 0.0480 0.0046
vn 0.9993 0.0316 0.0182
vn 0.9939 -0.1099 -0.0066
vn 0.9954 0.0962 -0.0031
vn 0.5547 0.8321 0.0014
vn 0.5646 0.8254 -0.0038
vn 0.5797 0.8147 -0.0119
vn 0.3207 0.2514 -0.9132
vn 0.0183 0.9998 0.0043
vn 0.0123 0.9999 0.0109
vn 0.0222 0.9998 0.0004
vn -0.0088 -0.0300 0.9995
vn -0.0226 0.9353 0.3531
vn -0.0164 0.9288 0.3703
vn -0.0091 0.9263 0.3767
vn 0.0263 0.9996 0.0045
vn 0.9992 0.0345 0.0214
vn 0.9986 0.0520 0.0053
vn 0.9991 0.0413 0.0026
vn 0.5659 0.3405 0.7509
vn -0.0075 0.9245 0.3811
vn 0.9448 0.3181 0.0782
vn 0.2588 0.9652 0.0379
vn 0.2511 0.9679 0.0108
vn 0.2534 0.9672 0.0189
vn 0.8750 0.2874 -0.3896
vn 0.2405 0.9703 -0.0255
vn 0.7849 0.2217 -0.5787
vn 0.9789 0.2045 0.0010
vn 0.9785 0.2046 0.0270
vn 0.9798 0.2000 -0.0052
vn -0.1070 0.9922 -0.0635
vn -0.0841 0.5433 -0.8353
vn -0.5822 0.6993 -0.4147
vn 0.4339 0.0040 -0.9010
vn -0.2505 0.9129 -0.3222
vn -0.3062 0.9098 -0.2801
vn -0.2305 0.9129 -0.3368
vn -0.3255 0.9077 -0.2648
vn -0.0123 0.8610 -0.5084
vn -0.0155 0.8681 -0.4962
vn 0.0079 0.8115 -0.5843
vn -0.2794 -0.9474 0.1559
vn -0.0284 -0.9994 0.0202
vn -0.0364 -0.9992 0.0168
vn -0.0609 -0.9981 0.0061
vn -0.0797 -0.9968 -0.0020
vn -0.9844 -0.1123 0.1354
vn -0.4072 0.0835 0.9095
vn -0.1228 0.2401 0.9629
vn -0.9521 -0.2702 0.1434
vn 0.2981 0.0287 0.9541
vn 0.0998 0.2185 0.9707
vn 0.2721 -0.0907 0.9580
vn -0.0320 -0.9994 0.0118
vn -0.9018 0.3969 -0.1708
vn -0.8593 0.4739 -0.1923
vn -0.8652 0.4642 -0.1896
vn -0.9998 -0.0176 0.0136
vn -0.9988 -0.0205 0.0443
vn -0.9997 0.0187 -0.0185
vn -0.9991 0.0145 -0.0394
vn -0.8600 0.2223 0.4593
vn -0.0142 0.4304 0.9025
vn -0.0398 0.4238 0.9049
vn -0.0019 0.4334 0.9012
vn -0.9994 0.0020 -0.0346
vn -0.0401 0.9648 0.2599
vn -0.0142 0.8560 0.5168
vn -0.0086 0.1450 0.9894
vn -0.0124 0.1563 0.9876
vn 0.9805 0.1963 -0.0021
vn -0.9987 -0.0500 0.0022
vn -0.1908 0.0320 -0.9811
vn -0.4123 0.9008 -0.1365
vn -0.1578 0.0848 -0.9838
vn -0.9981 0.0558 -0.0245
vn 0.9880 -0.0921 -0.1243
vn 0.0214 0.9934 -0.1125
vn 0.0161 0.5740 0.8187
vn -0.9082 0.3838 -0.1671
vn -0.9986 0.0425 -0.0310
vn -0.9992 0.0402 -0.0031
vn -0.3319 0.9432 0.0151
vn 0.0844 0.3422 0.9358
vn -0.9999 0.0152 0.0026
vn -0.9958 0.0720 0.0574
vn -0.9993 0.0348 0.0147
vn -0.9972 -0.0059 -0.0750
vn -0.9815 -0.1904 -0.0222
vn 0.0412 -0.9974 0.0595
vn 0.0639 -0.9973 0.0369
vn 0.0381 -0.9973 0.0626
vn -0.0014 0.0129 -0.9999
vn -0.0089 0.0204 -0.9998
vn -0.0009 0.0125 -0.9999
vn -0.0198 0.6713 -0.7409
vn 0.0134 0.0151 -0.9998
vn 0.0099 0.0136 -0.9999
vn 0.0198 0.0180 -0.9996
vn 0.0112 0.8027 -0.5962
vn 0.0085 -0.9999 0.0135
vn 0.0034 -1.0000 -0.0085
vn -0.0002 -1.0000 0.0007
vn 0.0400 -0.9991 -0.0168
vn 0.9726 0.2116 -0.0969
vn 0.5730 0.5650 0.5937
vn 0.1412 0.0418 0.9891
vn 0.2201 0.7052 0.6739
vn 0.1239 0.9801 0.1549
vn 0.0239 0.9997 -0.0010
vn 0.0447 0.9989 0.0146
vn 0.0491 0.9987 0.0134
vn 0.0687 0.9976 0.0076
vn 0.1084 0.1934 0.9751
vn 0.0756 0.9971 0.0056
vn 0.9982 0.0530 -0.0298
vn 0.0247 0.0946 -0.9952
vn 0.5894 0.8076 -0.0172
vn 0.0086 0.9997 0.0223
vn 0.2367 0.3632 0.9012
vn -0.0002 0.9218 0.3876
vn 0.2360 0.0314 0.9712
vn 0.9647 0.0474 0.2589
vn 0.9990 0.0444 0.0112
vn 0.9950 0.0973 0.0215
vn 0.9895 0.1413 0.0300
vn 0.9960 0.0209 0.0873
vn 0.8941 0.1749 0.4124
vn 0.9761 0.1920 0.1017
vn 0.9803 0.1969 -0.0183
vn 0.0063 0.0052 -1.0000
vn 0.0113 -0.9959 0.0892
vn 0.9517 0.0629 -0.3004
vn 0.0233 0.0195 -0.9995
vn -0.0471 0.4219 0.9054
vn -0.9901 0.0716 0.1205
vn -0.0020 -0.9993 -0.0361
vn -0.3984 0.2167 -0.8913
vn 0.2527 -0.9449 -0.2083
vn 0.9873 0.1553 0.0327
vn -0.9856 -0.0695 0.1539
vn -0.9728 -0.2143 -0.0881
vn 0.6572 0.7527 -0.0398
vn 0.7213 0.6870 0.0884
vn -0.9998 0.0191 0.0008
vn 0.9862 -0.1260 -0.1070
usemtl None
s 1
f 54//1 55//1 2//1 1//1
f 5//2 8//3 6//4
f 6//4 1//5 5//2
f 3//6 20//7 7//8
f 4//9 9//10 8//11
f 11//12 12//13 13//14
f 12//15 16//15 15//15
f 14//16 12//17 15//18
f 14//16 15//18 17//19
f 3//20 25//21 20//22
f 3//20 4//23 25//21
f 2//24 21//25 4//9
f 23//26 20//26 25//26
f 21//25 25//27 4//9
f 21//28 22//28 25//28
f 7//8 20//7 24//29
f 20//7 23//30 24//29
f 23//31 25//32 24//33
f 25//34 22//34 29//34
f 33//35 24//36 27//37
f 27//38 28//39 36//40
f 30//41 28//42 27//43
f 25//44 29//45 26//46
f 26//46 29//45 30//47
f 31//48 33//49 34//50
f 32//51 34//52 38//53
f 35//54 38//54 34//54
f 37//55 33//55 36//55
f 28//39 37//56 36//40
f 38//57 39//57 41//57
f 30//58 29//58 35//58
f 29//59 73//60 35//61
f 73//62 39//63 38//64
f 42//65 31//65 40//65
f 38//53 45//66 40//67
f 19//68 42//68 44//68
f 42//69 40//69 44//69
f 43//70 45//71 46//72
f 47//73 97//74 48//75
f 47//76 49//77 52//78
f 43//70 46//72 89//79
f 54//80 1//5 6//4
f 54//81 6//81 56//81
f 55//82 54//83 56//84
f 6//85 57//85 56//85
f 17//86 15//86 58//86
f 63//87 17//87 59//87
f 17//88 58//88 59//88
f 90//89 58//89 88//89
f 57//90 61//91 80//92
f 62//93 86//93 85//93
f 63//94 59//95 87//96
f 73//97 68//98 66//99 67//100
f 56//101 69//102 67//103
f 57//104 60//105 56//101
f 70//106 71//107 73//97
f 70//108 81//109 72//108
f 73//110 74//111 93//112 96//113
f 97//114 53//114 78//114
f 73//110 71//115 74//111
f 71//116 72//117 74//118
f 65//119 87//119 74//119
f 41//120 94//121 97//122
f 97//74 77//123 48//75
f 77//124 78//125 48//126
f 41//120 97//122 47//127
f 92//128 53//128 97//129 74//111 75//130
f 97//131 78//131 77//131
f 48//126 78//125 79//132
f 78//133 53//133 79//133
f 82//134 85//135 84//136
f 64//137 81//137 86//137
f 84//136 85//135 86//138
f 87//139 65//139 63//139
f 65//140 72//141 64//142
f 43//70 89//79 91//143
f 90//144 43//144 91//144
f 92//145 91//145 89//145
f 89//146 53//146 92//146
f 92//147 76//148 91//149
f 92//147 75//150 76//148
f 79//151 53//152 52//153
f 4//154 3//154 7//154
f 4//155 7//156 9//157
f 9//157 7//156 13//158
f 8//11 5//159 4//9
f 10//160 11//12 13//14
f 31//161 10//161 13//161
f 12//162 11//162 10//162
f 12//163 9//163 13//163
f 9//164 12//164 8//164
f 12//165 14//165 8//165
f 6//4 8//3 14//166
f 19//167 10//168 31//169
f 15//170 16//171 19//172
f 18//173 15//170 19//172
f 21//174 2//174 22//174
f 22//175 55//176 66//177
f 7//178 24//178 33//178
f 24//33 25//32 26//179
f 29//180 22//180 68//180
f 26//181 30//41 24//182
f 24//182 30//41 27//43
f 28//183 30//183 37//183
f 13//184 7//184 31//184
f 34//50 32//185 31//48
f 40//186 31//186 32//186
f 34//50 33//49 35//187
f 36//188 33//35 27//37
f 37//189 30//189 35//189
f 35//190 73//190 38//190
f 73//62 96//191 95//191 39//63
f 19//167 31//169 42//192
f 40//67 32//51 38//53
f 18//173 19//172 44//193
f 18//173 44//193 43//194
f 44//195 45//195 43//195
f 44//196 40//196 45//196
f 45//66 38//53 46//197
f 47//76 48//198 49//77
f 18//173 51//199 50//200
f 50//201 15//201 18//201
f 58//202 15//203 50//204
f 18//173 43//194 51//199
f 50//205 51//206 90//207
f 43//208 90//208 51//208
f 89//209 46//210 52//211
f 46//197 47//76 52//78
f 49//212 79//151 52//153
f 6//4 14//166 61//213
f 62//214 61//213 14//166
f 61//213 57//215 6//4
f 17//216 63//216 64//216
f 64//217 86//217 62//217
f 66//99 55//82 56//84 67//100
f 56//101 60//105 69//102
f 69//218 80//218 83//218
f 69//102 60//105 80//219
f 22//220 66//220 68//220
f 67//221 69//221 83//221
f 73//97 67//100 70//106
f 29//59 68//222 73//60
f 67//223 83//224 70//225
f 71//226 70//108 72//108
f 70//225 83//224 81//227
f 74//111 59//228 75//130
f 87//96 59//95 74//229
f 74//118 72//117 65//230
f 39//231 95//231 94//121 41//120
f 59//232 76//232 75//232
f 49//233 48//126 79//132
f 80//219 60//105 57//234
f 85//235 82//235 61//235 62//235
f 83//236 80//237 81//238
f 82//239 80//92 61//91
f 81//240 84//240 86//240
f 72//141 81//241 64//142
f 64//142 63//242 65//140
f 88//243 50//205 90//207
f 58//202 50//204 88//244
f 76//245 90//245 91//245
f 89//209 52//211 53//246
f 22//175 2//247 55//176
f 33//248 31//248 7//248
f 17//249 62//214 14//166
f 35//250 33//250 37//250
f 62//251 17//251 64//251
f 82//252 84//252 81//238 80//237
f 2//24 4//9 5//159 1//253
f 19//254 16//254 12//254 10//254
f 93//255 94//255 95//255 96//255
f 97//256 94//256 93//256
f 74//111 97//129 93//112
f 47//76 46//197 38//53 41//257
f 59//258 58//258 90//258 76//258
