# Blender v2.92.0 OBJ File: 'Rocks.blend'
# www.blender.org
mtllib Large Rock 3.mtl
o Large_Rock_4_Cube.018
v -8.462850 -8.077406 93.806282
v -7.410443 -3.120070 97.302124
v -8.926028 -6.900718 93.945786
v -8.626585 -2.065059 94.826172
v -4.715776 -2.973640 105.895378
v -4.269927 -5.689524 105.411964
v -4.003481 -7.851139 103.464737
v -5.652478 -1.627731 102.101547
v -4.261188 2.502440 103.405197
v -4.331519 -7.992423 101.395630
v -5.092829 -3.559714 102.226173
v -5.044073 -8.157337 98.029030
v -6.754173 -8.341501 93.335114
v 10.591846 -8.100333 89.859856
v -2.910175 -7.085161 106.637794
v -3.345856 -5.336486 106.811127
v 9.369359 -8.006579 99.376701
v 3.558015 -5.697195 106.067932
v -2.148792 -0.551023 106.247452
v 4.713616 -7.236150 105.459702
v -7.978847 7.260067 93.964584
v -7.846183 1.589561 98.267220
v -7.884175 12.117270 91.899643
v -7.314503 5.710020 90.916191
v -5.983380 11.755836 87.548462
v -5.397747 3.031140 101.750053
v -4.646065 3.776827 102.320389
v -4.418163 9.001291 99.379532
v -3.215323 8.787041 99.779343
v -5.824024 11.670357 94.405418
v -4.486327 15.608894 92.245018
v -3.949752 15.620043 90.639854
v -3.805159 4.129769 102.266747
v -5.152617 12.785130 93.605713
v -2.455654 15.602281 90.465553
v -6.426323 -4.987779 83.283600
v -6.326661 -1.534210 84.165024
v -5.747861 -5.927508 82.228645
v -5.588332 -1.194504 83.140594
v -5.556634 -6.598575 83.708206
v -3.755687 -4.653383 82.026192
v -1.424395 -5.504582 81.870499
v -5.823835 2.952664 84.542976
v -5.228517 12.862798 87.281174
v -4.379622 4.192236 84.082741
v -0.367187 12.483520 86.651917
v -2.821526 9.327621 85.299614
v 10.650392 -7.463439 104.858597
v 10.064263 -6.017108 105.144684
v 9.655322 -1.643179 98.957024
v 8.459065 1.421604 89.700211
v 10.888431 -2.959092 103.714676
v 10.032996 -6.903998 99.771248
v 11.051816 -4.015069 103.137421
v 10.029220 -3.026703 98.799805
v 11.021881 -7.451077 89.770355
v 9.908663 -2.855176 92.743065
v 9.760650 -2.587476 89.985443
v 0.819840 12.461159 94.491562
v 2.706540 11.476729 90.301865
v 2.821802 9.747724 97.020721
v 5.532029 7.779711 92.832504
v 7.074935 1.925147 99.668152
v 7.317715 3.439704 92.259666
v 6.428027 6.780673 90.704514
v 8.010068 0.422307 103.365204
v 8.512930 1.015701 92.338120
v 2.147276 -6.395565 82.173187
v 7.928634 -6.534126 82.114494
v 6.815715 -0.349986 82.421379
v 9.067631 -6.361707 84.186859
v 7.964749 -5.601823 81.037315
v 8.449594 -5.073671 82.769318
v 0.712808 12.387464 87.322601
v 1.941992 10.011257 85.224281
v 4.514126 3.599288 82.568916
v 3.226686 7.211184 84.068230
v 4.080381 8.264746 85.364510
v 5.199214 -1.143205 81.536987
v 5.646021 4.319387 83.452599
vt 0.824405 0.051264
vt 0.825125 0.052805
vt 0.825125 0.066916
vt 0.824565 0.066648
vt 0.822518 0.072822
vt 0.821445 0.081756
vt 0.820228 0.073517
vt 0.824489 0.082354
vt 0.807907 0.053852
vt 0.806237 0.053341
vt 0.810133 0.050203
vt 0.810273 0.053348
vt 0.814964 0.060261
vt 0.823109 0.088607
vt 0.821796 0.088737
vt 0.824268 0.085922
vt 0.822343 0.082607
vt 0.819384 0.084494
vt 0.806562 0.077621
vt 0.826948 0.078291
vt 0.825906 0.075673
vt 0.828278 0.074080
vt 0.829668 0.077842
vt 0.818808 0.061668
vt 0.822213 0.067771
vt 0.817862 0.065877
vt 0.816607 0.077190
vt 0.815715 0.062102
vt 0.816180 0.056640
vt 0.819267 0.080882
vt 0.818865 0.082309
vt 0.829371 0.078990
vt 0.828520 0.079750
vt 0.828756 0.078291
vt 0.819976 0.103975
vt 0.820746 0.103515
vt 0.819380 0.110071
vt 0.822808 0.103717
vt 0.822294 0.093213
vt 0.822808 0.091799
vt 0.825125 0.091553
vt 0.826175 0.080545
vt 0.820555 0.052895
vt 0.822708 0.052382
vt 0.824918 0.050203
vt 0.813132 0.091396
vt 0.812471 0.096722
vt 0.811558 0.091689
vt 0.815696 0.068192
vt 0.815715 0.060680
vt 0.810094 0.089585
vt 0.810858 0.113206
vt 0.810220 0.116935
vt 0.807529 0.110167
vt 0.809404 0.107443
vt 0.811587 0.112514
vt 0.811009 0.102242
vt 0.812259 0.101828
vt 0.809186 0.116114
vt 0.793484 0.093069
vt 0.793484 0.098681
vt 0.792820 0.097208
vt 0.806084 0.105814
vt 0.826318 0.063230
vt 0.801376 0.050203
vt 0.801724 0.059397
vt 0.800103 0.053742
vt 0.799532 0.052954
vt 0.811141 0.084552
vt 0.803412 0.076643
vt 0.803641 0.076476
vt 0.803641 0.091019
vt 0.803426 0.087129
vt 0.800110 0.061793
vt 0.800820 0.072502
vt 0.793834 0.081085
vt 0.796340 0.078639
vt 0.796096 0.088862
vt 0.797712 0.054868
vt 0.797413 0.061862
vt 0.793735 0.068938
vt 0.795501 0.075293
vt 0.798965 0.074239
vt 0.797742 0.075097
vt 0.799422 0.061852
vt 0.801046 0.077433
vt 0.799126 0.078962
vt 0.815349 0.074114
vt 0.807890 0.087030
vt 0.803641 0.084552
vt 0.804907 0.090837
vt 0.800687 0.091846
vt 0.802961 0.090000
vt 0.803369 0.093069
vt 0.805431 0.101729
vt 0.804834 0.096635
vt 0.793578 0.086970
vt 0.795072 0.089939
vt 0.804133 0.097223
vt 0.803869 0.091266
vt 0.798311 0.091144
vt 0.823664 0.091799
vt 0.822830 0.091544
vt 0.803844 0.066605
vt 0.803641 0.053064
vt 0.805216 0.052840
vt 0.818711 0.107119
vt 0.819034 0.112520
vt 0.818130 0.107984
vt 0.815768 0.103652
vt 0.792129 0.093069
vt 0.792820 0.097726
vt 0.791335 0.097726
vt 0.813646 0.115678
vt 0.829371 0.101116
vt 0.820954 0.094847
vt 0.820954 0.100922
vt 0.815300 0.106383
vt 0.813646 0.102107
vt 0.815300 0.084552
vt 0.819034 0.096296
vt 0.815715 0.101388
vt 0.817821 0.091799
vt 0.813646 0.093172
vt 0.813216 0.097158
vt 0.803845 0.076990
vt 0.828291 0.050203
vt 0.829668 0.055716
vt 0.802191 0.060057
vt 0.792609 0.074352
vt 0.815648 0.084552
vt 0.815095 0.083957
vt 0.791335 0.082784
vt 0.793494 0.088429
vt 0.796638 0.091163
vt 0.819034 0.093868
vt 0.820954 0.091799
vt 0.826153 0.078430
vt 0.826725 0.051475
vt 0.825125 0.074648
vt 0.825711 0.060890
vt 0.826103 0.050205
vn -0.8590 -0.4636 -0.2171
vn -0.8578 -0.4583 -0.2328
vn -0.8506 -0.4367 -0.2928
vn -0.8940 -0.1356 0.4272
vn -0.8968 -0.2049 0.3922
vn -0.9099 -0.1624 0.3818
vn -0.8733 -0.0770 0.4811
vn -0.8767 -0.1788 0.4466
vn -0.0513 -0.9971 0.0568
vn -0.0027 -0.9983 0.0583
vn -0.1268 -0.9884 0.0839
vn -0.0999 -0.9925 -0.0697
vn -0.2030 -0.9588 -0.1988
vn -0.0343 -0.9815 -0.1882
vn -0.9691 -0.2138 0.1232
vn -0.9668 -0.1893 0.1716
vn -0.9652 -0.2346 0.1153
vn -0.9661 -0.1971 0.1666
vn -0.9685 -0.2052 0.1408
vn -0.9638 -0.2520 0.0872
vn -0.9274 0.2159 0.3056
vn 0.0150 -0.9984 0.0542
vn -0.3037 0.1860 0.9344
vn -0.4808 0.3957 0.7825
vn -0.9830 0.1812 0.0305
vn -0.8421 0.2648 0.4699
vn -0.8345 0.2927 0.4667
vn -0.8459 0.2225 0.4847
vn -0.9811 -0.0555 -0.1856
vn -0.9648 0.0714 -0.2532
vn -0.9731 0.0388 -0.2270
vn -0.8238 0.0873 0.5601
vn -0.7920 0.1501 0.5918
vn -0.8087 0.2258 0.5432
vn -0.7532 0.3193 0.5752
vn -0.2019 0.5988 0.7751
vn -0.1861 0.5232 0.8316
vn -0.1926 0.5538 0.8100
vn -0.6871 0.6909 -0.2249
vn -0.6872 0.6797 -0.2565
vn -0.6870 0.6744 -0.2706
vn -0.1001 0.5025 0.8588
vn -0.0940 0.5453 0.8330
vn -0.0832 0.6135 0.7853
vn 0.3231 0.4137 0.8512
vn -0.9557 0.1123 -0.2721
vn -0.9704 0.0888 -0.2247
vn -0.8615 -0.4950 -0.1131
vn -0.2198 0.1917 -0.9565
vn -0.1930 0.2067 -0.9592
vn -0.1373 0.0963 -0.9858
vn 0.0540 -0.9067 -0.4182
vn -0.0875 -0.0578 -0.9945
vn -0.0791 -0.0345 -0.9963
vn -0.0209 0.7766 -0.6296
vn -0.0435 0.7659 -0.6415
vn -0.0306 0.7721 -0.6348
vn -0.5024 0.1365 -0.8538
vn -0.3914 0.2970 -0.8710
vn -0.4697 0.1984 -0.8602
vn -0.1381 0.2464 -0.9593
vn -0.4746 0.2764 -0.8357
vn -0.4855 0.2552 -0.8362
vn -0.4892 0.2609 -0.8322
vn -0.0673 0.7540 -0.6534
vn -0.0795 0.4442 -0.8924
vn -0.0807 0.4450 -0.8919
vn -0.0791 0.4440 -0.8926
vn 0.3603 0.8091 -0.4643
vn 0.5335 0.7569 -0.3774
vn 0.3846 0.7701 -0.5090
vn -0.0777 0.4431 -0.8931
vn 0.1112 0.0888 0.9898
vn 0.1841 0.2272 0.9563
vn 0.1573 0.1718 0.9725
vn 0.9735 -0.1823 -0.1382
vn 0.9736 -0.1116 -0.1989
vn 0.9745 -0.1325 -0.1812
vn 0.9679 0.0126 0.2509
vn -0.0040 -0.9953 -0.0965
vn 0.7524 -0.5455 -0.3693
vn 0.7805 -0.4900 -0.3883
vn 0.7560 -0.5388 -0.3717
vn 0.9950 0.0253 0.0970
vn 0.9608 0.2660 -0.0788
vn 0.9687 0.2474 -0.0198
vn 0.9688 0.2472 -0.0173
vn 0.6977 0.6869 -0.2034
vn 0.7789 0.6022 -0.1751
vn 0.7172 0.6488 -0.2542
vn 0.8102 0.5861 -0.0036
vn 0.8666 0.4978 0.0356
vn 0.8697 0.4657 0.1635
vn 0.7566 0.6470 0.0945
vn 0.7817 0.6226 0.0368
vn 0.7383 0.6599 0.1397
vn 0.9342 0.3417 0.1026
vn 0.9013 0.4053 0.1531
vn 0.9177 0.3400 0.2054
vn 0.8788 0.4295 0.2078
vn 0.7949 0.6054 -0.0406
vn 0.9578 0.2730 0.0898
vn 0.9326 0.3548 0.0659
vn -0.0172 -0.9800 -0.1985
vn -0.0789 -0.6147 -0.7848
vn -0.1149 -0.6999 -0.7049
vn -0.0311 -0.7374 -0.6747
vn -0.1043 0.1286 -0.9862
vn -0.0796 0.0539 -0.9954
vn 0.9129 0.2927 -0.2844
vn 0.9114 0.3223 -0.2558
vn 0.9282 0.2172 -0.3022
vn 0.9153 0.2344 -0.3277
vn 0.9446 0.1150 -0.3073
vn -0.1105 0.3239 -0.9396
vn -0.0949 0.2839 -0.9542
vn -0.0657 0.3549 -0.9326
vn -0.1382 0.2556 -0.9568
vn 0.5663 0.6904 -0.4502
vn 0.4083 0.3547 -0.8411
vn 0.4040 0.4116 -0.8170
vn 0.3657 0.2782 -0.8882
vn 0.4402 0.5151 -0.7354
vn 0.8814 0.4103 -0.2343
vn 0.8945 0.3668 -0.2557
vn -0.8131 -0.3730 0.4468
vn -0.9083 -0.0871 0.4090
vn -0.8069 -0.4471 0.3860
vn -0.8884 -0.2292 0.3977
vn -0.8315 0.0869 0.5486
vn -0.9750 0.0822 -0.2063
vn -0.7811 -0.2388 0.5770
vn -0.7828 -0.2401 0.5741
vn -0.8002 -0.2533 0.5436
vn -0.7718 -0.2321 0.5920
vn -0.0021 -0.9530 0.3030
vn 0.0162 -0.9732 0.2294
vn 0.0119 -0.9904 0.1376
vn -0.9803 -0.1335 -0.1457
vn -0.8320 0.3229 0.4512
vn -0.4997 0.6831 0.5327
vn -0.4890 0.6958 0.5261
vn -0.4826 0.7032 0.5222
vn -0.9109 -0.1463 -0.3858
vn -0.4736 0.7133 0.5166
vn -0.5480 0.4645 0.6956
vn -0.6866 0.6680 -0.2870
vn 0.1082 0.6234 0.7744
vn 0.1159 0.6303 0.7676
vn 0.1047 0.5741 0.8121
vn 0.1154 0.6018 0.7902
vn -0.1068 0.4520 0.8856
vn 0.0132 0.9998 0.0114
vn 0.1244 0.7208 0.6819
vn 0.1795 0.7384 0.6501
vn -0.0943 0.8575 0.5058
vn -0.9735 0.0826 -0.2134
vn -0.9738 0.0946 -0.2069
vn -0.7764 0.1484 -0.6125
vn -0.8250 0.1516 -0.5444
vn -0.8197 0.1484 -0.5532
vn -0.7677 0.1461 -0.6239
vn -0.8247 0.1386 -0.5484
vn -0.1191 -0.7123 -0.6917
vn -0.8023 0.4534 -0.3882
vn 0.0143 -0.9919 0.1260
vn 0.2142 0.2753 0.9372
vn 0.2345 0.2953 0.9262
vn 0.7623 0.6470 -0.0186
vn 0.8524 0.5227 -0.0121
vn 0.8340 -0.5402 0.1122
vn 0.8700 -0.4675 -0.1570
vn 0.9685 -0.0597 -0.2419
vn 0.9595 0.2667 -0.0910
vn 0.9528 0.2453 -0.1791
vn 0.9521 0.2500 -0.1762
vn 0.9673 0.2521 -0.0275
vn 0.7235 0.6716 0.1599
vn 0.8621 0.5068 0.0029
vn 0.9270 0.2693 -0.2612
vn -0.0248 -0.7555 -0.6547
vn 0.3358 0.3081 -0.8901
vn 0.3504 0.2818 -0.8932
vn 0.9347 0.2403 -0.2618
vn -0.0254 -0.9815 -0.1897
vn 0.7842 -0.4820 -0.3909
vn 0.6115 0.7720 -0.1732
vn 0.4653 0.5117 -0.7223
vn 0.4583 0.5176 -0.7225
vn 0.8534 0.4587 -0.2477
vn 0.7230 0.6742 0.1510
vn 0.5291 0.8219 0.2108
vn -0.1779 0.4851 0.8562
vn 0.2036 0.2649 0.9425
vn 0.1232 -0.1727 0.9772
vn 0.1128 -0.2113 0.9709
vn 0.1192 -0.1877 0.9750
vn 0.1086 -0.2266 0.9679
vn 0.6950 0.1423 0.7048
usemtl Master_Mat
s 1
f 36/1/1 40/2/2 1/3/3 3/4/3
f 2/5/4 8/6/5 22/7/6
f 3/4/7 10/8/8 2/5/4
f 12/9/9 10/10/10 1/11/11
f 13/12/12 1/11/13 40/13/14
f 6/14/15 5/15/16 8/6/17
f 10/8/18 7/16/19 11/17/20
f 6/14/15 8/6/17 11/17/20
f 5/15/21 9/18/21 8/6/21
f 13/12/12 17/19/22 12/9/9
f 5/20/23 16/21/23 19/22/23
f 5/20/24 19/22/24 9/23/24
f 22/7/25 24/24/25 4/25/25
f 21/26/26 28/27/27 23/28/28
f 21/26/29 25/29/30 24/24/31
f 8/6/32 9/18/33 26/30/34
f 9/18/33 27/31/35 26/30/34
f 9/32/36 33/33/37 27/34/38
f 26/30/34 27/31/35 28/27/27
f 31/35/39 32/36/40 23/37/41
f 59/38/42 34/39/43 30/40/44
f 33/33/45 61/41/45 29/42/45
f 24/24/31 43/43/46 37/44/47
f 40/2/2 36/1/1 38/45/48
f 38/46/49 39/47/50 41/48/51
f 42/49/52 40/13/52 38/50/52
f 41/48/51 42/51/53 38/46/54
f 43/43/46 24/24/31 25/29/30
f 44/52/55 32/53/56 46/54/57
f 44/52/58 47/55/59 25/56/60
f 41/48/51 39/47/50 45/57/61
f 45/57/62 39/47/63 43/58/64
f 32/53/56 35/59/65 46/54/57
f 47/55/59 45/57/62 25/56/60
f 47/55/66 44/52/67 46/54/68
f 35/60/69 74/61/70 46/62/71
f 75/63/72 47/55/66 46/54/68
f 16/21/73 18/64/74 19/22/75
f 48/65/76 53/66/77 54/67/78
f 52/68/79 48/65/79 54/67/79
f 14/69/80 17/19/22 13/12/12
f 56/70/81 14/71/81 69/72/82 71/73/83
f 55/74/84 53/66/84 56/70/84
f 55/74/85 56/70/86 57/75/87
f 60/76/88 65/77/89 78/78/90
f 66/79/91 63/80/92 61/81/93
f 62/82/94 65/77/95 60/76/96
f 63/80/92 67/83/97 64/84/98
f 64/84/98 65/77/99 62/82/100
f 66/79/91 50/85/101 63/80/92
f 67/83/97 58/86/102 51/87/103
f 14/69/80 13/12/12 40/13/14
f 68/88/104 14/69/80 40/13/14
f 68/89/105 42/51/106 72/90/107
f 41/48/51 79/91/108 72/90/109
f 70/92/110 51/87/111 73/93/112
f 70/92/110 73/93/112 72/94/113
f 73/93/112 71/73/114 72/94/113
f 77/95/115 47/55/116 75/63/117
f 41/48/51 45/57/61 76/96/118
f 77/95/115 45/57/61 47/55/116
f 78/78/90 74/97/70 60/76/88
f 74/97/70 78/78/90 75/98/119
f 76/96/120 80/99/121 70/100/122
f 80/99/121 76/96/120 77/95/123
f 79/91/108 41/48/51 76/96/118
f 65/77/124 51/87/111 80/101/125
f 51/87/111 70/92/110 80/101/125
f 1/3/126 10/8/126 3/4/126
f 4/25/127 3/4/7 2/5/4
f 6/14/128 7/16/128 15/102/128
f 2/5/4 11/17/129 8/6/5
f 22/7/130 8/6/32 26/30/34
f 10/8/8 11/17/129 2/5/4
f 4/25/127 2/5/4 22/7/6
f 13/12/12 12/9/9 1/11/11
f 37/44/47 4/25/131 24/24/31
f 5/15/132 15/102/133 16/103/134
f 15/102/133 5/15/132 6/14/135
f 7/16/19 6/14/15 11/17/20
f 12/9/9 17/19/22 10/10/10
f 20/104/136 15/105/137 7/106/138
f 21/26/29 24/24/31 22/7/139
f 21/26/26 22/7/140 26/30/34
f 21/26/26 26/30/34 28/27/27
f 34/107/141 23/108/142 30/109/143
f 23/28/144 25/29/144 21/26/144
f 23/108/142 28/110/145 30/109/143
f 23/111/146 34/112/146 31/113/146
f 23/114/41 32/53/40 44/52/147
f 9/32/148 66/115/149 33/33/150
f 33/33/150 66/115/149 61/41/151
f 34/39/43 59/38/42 31/116/152
f 32/36/153 31/35/153 35/117/153
f 9/118/148 19/119/154 66/120/149
f 59/121/155 29/122/155 61/123/155
f 28/110/156 29/122/156 59/121/156 30/109/156
f 36/1/157 3/4/158 37/44/47
f 36/124/159 37/125/160 39/47/161
f 38/46/162 36/124/159 39/47/161
f 37/125/160 43/58/163 39/47/161
f 68/88/105 40/13/164 42/49/106
f 72/90/109 42/51/53 41/48/51
f 44/52/165 25/56/165 23/114/165
f 25/56/60 45/57/62 43/58/64
f 17/19/22 7/106/138 10/10/10
f 7/106/138 48/126/166 20/104/136
f 19/22/75 52/127/167 66/128/168
f 66/79/91 52/68/169 50/85/101
f 17/19/22 48/126/166 7/106/138
f 57/75/170 63/80/92 50/85/101
f 53/66/171 17/129/171 14/71/171 56/70/171
f 53/66/172 48/65/172 17/129/172
f 54/67/78 53/66/77 55/74/173
f 50/85/174 52/68/175 54/67/176
f 50/85/174 54/67/176 55/74/85
f 50/85/174 55/74/85 57/75/87
f 58/86/177 57/75/87 56/70/86
f 60/76/96 59/130/178 62/82/94
f 63/80/92 58/86/102 67/83/97
f 65/77/99 64/84/98 51/87/103
f 63/80/92 57/75/170 58/86/179
f 64/84/98 67/83/97 51/87/103
f 51/87/111 58/86/180 73/93/112
f 72/131/107 69/132/181 68/88/105
f 70/100/122 72/90/182 79/91/183
f 58/86/180 56/70/184 73/93/112
f 69/132/185 14/69/80 68/88/104
f 73/93/112 56/70/184 71/73/114
f 72/94/186 71/73/83 69/72/82
f 35/133/187 60/76/88 74/97/70
f 46/134/71 74/97/70 75/98/119
f 77/135/123 75/98/188 78/78/189
f 76/96/118 45/57/61 77/95/115
f 77/135/123 78/78/189 80/101/121
f 76/96/120 70/100/122 79/91/183
f 78/78/190 65/77/124 80/101/125
f 4/25/131 37/44/47 3/4/158
f 62/82/100 61/81/93 63/80/92 64/84/98
f 61/81/191 62/82/94 59/130/178
f 59/136/192 60/137/192 35/117/192 31/35/192
f 33/33/37 29/42/193 28/138/193 27/34/38
f 49/139/194 52/127/167 19/22/75 18/64/74
f 15/140/195 20/141/196 18/64/197 16/21/195
f 48/142/198 49/139/198 18/64/197 20/141/196
f 52/127/199 49/139/199 48/142/199
