# Blender v2.92.0 OBJ File: 'Rocks.blend'
# www.blender.org
mtllib Large Rock 4.mtl
o Large_Rock_3_Cube.024
v -1.681049 -1.958591 139.332642
v -1.769854 0.552678 139.361420
v -3.943235 -0.601346 135.475418
v -2.312160 -1.044690 135.704086
v -2.111229 -1.903236 136.065643
v 1.053382 -2.018179 135.617493
v -4.698971 -1.065814 131.299194
v -2.990810 -1.927875 127.669746
v -3.066214 -1.188762 127.511169
v -5.947004 1.460722 127.233360
v -5.224286 -0.803051 127.764709
v -4.603780 -2.842011 128.041290
v -4.706705 -1.058645 128.019867
v -0.740721 -2.172727 127.007523
v -4.401495 -2.877438 117.923111
v -4.351020 -2.498841 119.237717
v 2.325149 -1.883094 118.822418
v -4.350818 -2.426039 111.799629
v -4.456810 0.515880 118.245956
v -3.983360 8.907578 134.007431
v -1.860543 4.886031 137.094208
v -1.676381 9.996547 134.965546
v -4.285947 10.686536 132.194183
v -4.642089 11.112698 130.375610
v -1.951157 10.221454 134.100220
v -2.398656 11.204386 130.381561
v -4.344374 13.174706 130.047104
v -2.496123 13.245680 129.949905
v -1.997842 11.807992 131.956161
v -2.231210 11.925739 130.277283
v -4.922177 3.196592 126.931229
v -3.098856 3.981332 126.602135
v -4.530440 8.508974 126.992706
v -3.110687 8.266100 126.744019
v -2.642003 11.958258 126.987251
v -4.272117 13.240393 127.252731
v -2.495101 13.211394 127.226273
v -2.974489 11.818606 125.690659
v -1.391550 13.727972 124.285576
v -3.038954 2.717057 118.079521
v -2.872155 13.777857 122.622665
v -3.803757 2.041059 118.199539
v -4.037088 5.310089 111.032982
v -4.199190 5.152590 117.293556
v -3.077023 5.551463 117.046532
v -3.039914 5.451475 112.033058
v -2.943147 13.800900 117.874283
v -2.804399 15.825624 117.741028
v -2.931605 17.789991 113.069748
v -4.141536 -3.188000 109.075859
v -4.189623 3.292098 109.208771
v -2.997718 17.139347 112.192490
v 2.263480 17.305372 112.318535
v 0.965478 -1.845916 139.425629
v 1.083679 0.786693 139.400665
v 1.645435 -1.563293 135.790237
v 5.109185 -2.018964 135.590530
v 2.740625 -2.491951 115.976349
v 2.881660 -1.123103 118.292267
v 4.446676 0.754922 135.661880
v 5.264150 -2.021554 131.826645
v 6.897839 -2.133898 125.508392
v 6.525646 -1.710358 118.541542
v 6.637015 -1.791395 123.638000
v 4.600058 7.978080 119.641472
v 1.098009 8.384014 135.747009
v 1.361416 6.416627 135.653244
v 1.309202 11.729079 132.177628
v 2.813527 6.233813 135.648666
v 2.429469 6.513093 125.812134
v 2.362670 9.594870 125.208267
v 4.510404 8.163092 125.253433
v 2.160419 11.701989 125.636429
v 2.341748 9.618915 119.300163
v 2.339598 7.270866 115.051834
v 3.876865 7.658817 114.491776
v 0.490441 15.893503 117.772263
v 2.203565 16.531532 116.191727
v 2.041425 17.765493 113.130463
v 4.810870 4.411764 135.455200
v 4.836032 6.331905 125.585762
v 5.263078 2.528188 130.747101
v 4.746605 6.293360 133.726318
v 5.399187 2.681535 125.913399
v 6.749420 2.335946 125.495033
v 5.831231 2.551306 125.031914
v 4.925810 4.940511 118.919609
v 2.837963 -3.104989 109.120438
v 1.892349 6.017269 112.089706
v 2.471356 3.426133 109.152100
v 2.823432 6.036095 110.814346
v 2.261352 6.430991 112.269241
v 2.176393 12.698607 123.026718
v 1.100501 13.714994 123.906639
v 1.095181 13.707343 124.251213
v 2.138589 12.857368 124.826721
v 1.897800 13.674053 117.718102
vt 0.123287 0.804099
vt 0.123348 0.806319
vt 0.120931 0.806083
vt 0.121043 0.803974
vt 0.126687 0.778501
vt 0.127576 0.785607
vt 0.124012 0.778937
vt 0.126268 0.775738
vt 0.120852 0.803974
vt 0.120852 0.812137
vt 0.117256 0.804117
vt 0.101352 0.812712
vt 0.108331 0.812848
vt 0.108192 0.813473
vt 0.139148 0.791152
vt 0.138485 0.789453
vt 0.139344 0.790690
vt 0.139883 0.809837
vt 0.139455 0.802399
vt 0.139757 0.801278
vt 0.125682 0.786213
vt 0.128951 0.785282
vt 0.128951 0.793868
vt 0.123215 0.793203
vt 0.141849 0.803657
vt 0.139883 0.794454
vt 0.141640 0.795497
vt 0.140477 0.804097
vt 0.098228 0.811345
vt 0.100157 0.807670
vt 0.141849 0.793795
vt 0.102702 0.803145
vt 0.101954 0.803329
vt 0.118062 0.814448
vt 0.119549 0.813859
vt 0.117981 0.818495
vt 0.119756 0.816647
vt 0.117865 0.820074
vt 0.104522 0.801799
vt 0.114900 0.812710
vt 0.118071 0.816225
vt 0.137576 0.785412
vt 0.139145 0.785496
vt 0.137637 0.787784
vt 0.127057 0.819146
vt 0.125903 0.818967
vt 0.125910 0.817398
vt 0.105875 0.802320
vt 0.105956 0.801704
vt 0.142524 0.778213
vt 0.142484 0.782715
vt 0.141272 0.782565
vt 0.127634 0.778213
vt 0.131030 0.779510
vt 0.133470 0.781496
vt 0.134018 0.780517
vt 0.141018 0.786806
vt 0.142524 0.786737
vt 0.139145 0.787805
vt 0.102584 0.813473
vt 0.103984 0.814677
vt 0.102772 0.816127
vt 0.108154 0.814895
vt 0.108211 0.813473
vt 0.108211 0.817676
vt 0.099006 0.816080
vt 0.102584 0.821402
vt 0.098501 0.820304
vt 0.117865 0.821005
vt 0.116076 0.817950
vt 0.117865 0.816647
vt 0.143354 0.793998
vt 0.143354 0.801429
vt 0.142719 0.793795
vt 0.125741 0.786196
vt 0.123864 0.784455
vt 0.140983 0.808522
vt 0.140499 0.807206
vt 0.140983 0.804510
vt 0.139883 0.806589
vt 0.113637 0.818361
vt 0.108518 0.817723
vt 0.112763 0.817544
vt 0.123429 0.816319
vt 0.123429 0.820428
vt 0.121709 0.816400
vt 0.132468 0.788255
vt 0.134018 0.793320
vt 0.133220 0.793795
vt 0.112583 0.813357
vt 0.124020 0.775702
vt 0.123500 0.778793
vt 0.111921 0.778302
vt 0.114140 0.778213
vt 0.114028 0.781318
vt 0.141018 0.785412
vt 0.137576 0.785412
vt 0.140514 0.785048
vt 0.122920 0.795636
vt 0.134018 0.778335
vt 0.137576 0.778213
vt 0.137115 0.778809
vt 0.123864 0.808275
vt 0.126307 0.808720
vt 0.124055 0.809016
vt 0.129686 0.815604
vt 0.131869 0.810501
vt 0.131972 0.793795
vt 0.132177 0.796985
vt 0.126528 0.794244
vt 0.132604 0.808275
vt 0.132604 0.812298
vt 0.131869 0.811978
vt 0.135382 0.783982
vt 0.103075 0.790269
vt 0.102846 0.784704
vt 0.105580 0.781590
vt 0.107263 0.781626
vt 0.139517 0.778472
vt 0.140749 0.778318
vt 0.138136 0.783085
vt 0.107477 0.789997
vt 0.104880 0.790584
vt 0.125903 0.819734
vt 0.123864 0.819906
vt 0.124107 0.818323
vt 0.104995 0.795594
vt 0.102293 0.792507
vt 0.102115 0.790984
vt 0.101573 0.797027
vt 0.098650 0.801704
vt 0.099211 0.798399
vt 0.114235 0.816699
vt 0.116045 0.816647
vt 0.114140 0.821710
vt 0.135650 0.786609
vt 0.137576 0.787965
vt 0.106107 0.814931
vt 0.106945 0.820155
vt 0.121594 0.819194
vt 0.137050 0.787988
vt 0.138485 0.789372
vt 0.134253 0.787965
vt 0.102837 0.820155
vt 0.107850 0.801475
vt 0.107080 0.799138
vt 0.120852 0.820629
vt 0.138313 0.792002
vt 0.098228 0.801022
vt 0.120762 0.816647
vt 0.120762 0.821270
vt 0.119756 0.820628
vt 0.132492 0.803958
vt 0.125415 0.802703
vt 0.128701 0.802992
vt 0.119905 0.821443
vt 0.126938 0.808275
vt 0.124314 0.807819
vt 0.132678 0.808275
vt 0.123864 0.803075
vt 0.113637 0.812529
vt 0.133050 0.815376
vt 0.138522 0.817178
vt 0.132702 0.817718
vt 0.112432 0.813045
vt 0.112516 0.811253
vt 0.112833 0.801704
vt 0.112833 0.810889
vt 0.110535 0.811728
vt 0.110095 0.813052
vt 0.138485 0.792680
vt 0.134018 0.792705
vt 0.143052 0.816820
vt 0.141697 0.816509
vt 0.141378 0.812913
vt 0.143052 0.809837
vt 0.141628 0.810142
vt 0.101035 0.813435
vt 0.139875 0.793076
vt 0.141481 0.793716
vt 0.138166 0.809598
vt 0.136257 0.809140
vt 0.140406 0.789789
vt 0.140062 0.789247
vt 0.141481 0.787965
vt 0.136886 0.801593
vt 0.134754 0.808960
vt 0.139282 0.796101
vt 0.120852 0.814511
vt 0.123233 0.813111
vt 0.119756 0.819851
vt 0.099237 0.813473
vt 0.101810 0.815862
vt 0.127670 0.818980
vt 0.127670 0.817074
vt 0.107032 0.815214
vt 0.107153 0.817521
vt 0.114512 0.804552
vt 0.114140 0.808258
vt 0.141028 0.778943
vt 0.141849 0.800933
vt 0.141076 0.785721
vt 0.115744 0.816647
vt 0.098228 0.821402
vt 0.116805 0.820963
vt 0.116045 0.820060
vt 0.135575 0.801608
vt 0.132933 0.800861
vt 0.132702 0.795570
vt 0.108331 0.818686
vt 0.140052 0.804097
vt 0.124027 0.790079
vt 0.134014 0.789020
vt 0.134390 0.793990
vt 0.139883 0.793795
vt 0.128885 0.801383
vt 0.138700 0.809837
vt 0.138700 0.815320
vt 0.108331 0.811728
vt 0.108367 0.801846
vt 0.134093 0.791981
vt 0.120504 0.782225
vt 0.119227 0.787615
vt 0.120572 0.779030
vt 0.119654 0.793510
vt 0.119475 0.789191
vt 0.132702 0.802362
vt 0.137824 0.779985
vt 0.137881 0.778213
vt 0.123348 0.816319
vt 0.141378 0.818640
vt 0.140155 0.818509
vt 0.138700 0.816710
vt 0.141378 0.810243
vt 0.125903 0.817074
vt 0.139370 0.809837
vt 0.114140 0.796194
vt 0.116045 0.821402
vt 0.106093 0.814639
vt 0.114087 0.801704
vt 0.114087 0.809555
vt 0.112833 0.809030
vt 0.128918 0.802607
vt 0.128390 0.798140
vt 0.125024 0.795807
vt 0.128517 0.802243
vt 0.132778 0.809856
vt 0.122962 0.801464
vt 0.124193 0.817074
vt 0.127548 0.817074
vt 0.098246 0.813473
vt 0.107032 0.815619
vt 0.106954 0.814099
vt 0.101345 0.791762
vt 0.134004 0.784534
vn -0.0240 -0.0006 0.9997
vn -0.0367 -0.9993 -0.0028
vn -0.0842 -0.9960 0.0315
vn -0.0132 -0.9998 0.0114
vn 0.0061 -0.9998 0.0206
vn -0.9842 0.0229 0.1756
vn -0.9819 0.0214 0.1882
vn -0.9837 0.0220 0.1787
vn -0.9886 -0.0839 0.1254
vn -0.9924 -0.0813 0.0928
vn -0.9918 -0.0877 0.0934
vn -0.4183 0.0578 0.9065
vn -0.4481 -0.0151 0.8938
vn -0.4389 0.0081 0.8985
vn -0.9794 0.2010 -0.0203
vn 0.1627 -0.9866 0.0110
vn 0.1725 -0.9850 0.0069
vn 0.1518 -0.9883 0.0155
vn 0.1437 -0.9894 0.0188
vn -0.1034 0.1441 0.9841
vn -0.1354 0.1494 0.9795
vn -0.1419 0.1504 0.9784
vn -0.0991 0.1434 0.9847
vn -0.9903 -0.0045 0.1389
vn -0.9918 0.0477 0.1186
vn -0.4248 0.6098 0.6691
vn -0.9921 0.0483 0.1161
vn -0.9245 0.1745 0.3389
vn -0.9811 0.0236 0.1923
vn -0.9789 0.0380 0.2006
vn 0.0091 0.9740 0.2265
vn -0.0232 0.9684 0.2485
vn -0.0251 0.9680 0.2498
vn -0.7887 0.4859 0.3767
vn -0.9945 0.0820 -0.0647
vn -0.9845 0.1220 -0.1264
vn -0.9942 0.0839 -0.0676
vn -0.0372 0.9991 0.0225
vn -0.0181 0.9998 0.0099
vn -0.0040 1.0000 0.0007
vn 0.0053 0.1816 0.9834
vn 0.0414 0.2483 0.9678
vn 0.0049 0.1893 0.9819
vn -0.9651 0.2000 0.1690
vn -0.9641 0.2076 0.1658
vn -0.9606 0.2299 0.1564
vn -0.9580 0.2441 0.1503
vn -0.1853 0.0299 -0.9822
vn -0.1637 0.0518 -0.9851
vn -0.1660 0.0531 -0.9847
vn -0.9997 0.0137 -0.0190
vn -0.9923 0.0014 -0.1237
vn -0.9998 0.0144 -0.0105
vn -0.9658 0.1070 0.2361
vn -0.0140 0.0556 -0.9984
vn 0.0161 0.9998 -0.0126
vn -0.4891 0.7424 0.4578
vn 0.9667 0.2269 -0.1185
vn 0.0383 0.9992 0.0084
vn 0.0458 0.9989 0.0134
vn 0.0596 0.9980 0.0225
vn 0.0182 0.5766 0.8168
vn 0.0202 0.5789 0.8151
vn 0.0218 0.5808 0.8138
vn -0.6671 0.7226 -0.1811
vn -0.9999 0.0128 0.0026
vn -1.0000 0.0018 0.0063
vn -0.4160 0.2051 0.8859
vn -0.0866 0.2683 0.9594
vn -0.1155 0.9929 -0.0296
vn -0.1200 0.9926 -0.0207
vn -0.1168 0.9929 -0.0239
vn 0.0338 0.0633 0.9974
vn 0.0087 0.0084 0.9999
vn 0.0223 0.0381 0.9990
vn -0.9996 0.0244 0.0155
vn -0.9978 0.0526 0.0412
vn -0.9993 0.0276 0.0258
vn -0.1075 0.9923 -0.0608
vn 0.0409 -0.9981 0.0461
vn 0.5993 -0.7990 0.0500
vn 0.9861 0.0185 0.1652
vn 0.9827 -0.0424 0.1805
vn 0.9861 0.0169 0.1656
vn 0.0061 -0.3620 0.9322
vn 0.1132 -0.9681 0.2236
vn -0.0327 -0.5556 -0.8308
vn 0.8543 -0.4686 0.2250
vn 0.9984 0.0560 0.0092
vn 0.9980 0.0472 0.0411
vn 0.9975 0.0363 0.0603
vn 0.9972 0.0325 0.0669
vn 0.4526 0.0124 -0.8916
vn 0.0802 0.0758 -0.9939
vn 0.0685 0.0798 -0.9945
vn 0.0356 0.0910 -0.9952
vn 0.9898 0.0674 0.1258
vn 0.9858 0.0986 0.1360
vn 0.9861 0.0906 0.1396
vn 0.9871 0.0658 0.1460
vn 0.0418 0.0014 0.9991
vn 0.0385 0.0220 0.9990
vn 0.0053 0.0174 0.9998
vn 0.0559 -0.0123 0.9984
vn 0.1352 0.0186 0.9906
vn 0.9918 0.0553 0.1151
vn 0.9815 0.0571 0.1827
vn 0.1075 0.1945 0.9750
vn 0.1064 0.1958 0.9748
vn 0.9981 0.0608 0.0086
vn 0.9982 0.0590 -0.0065
vn 0.9988 0.0480 0.0046
vn 0.9993 0.0316 0.0182
vn 0.9939 -0.1099 -0.0066
vn 0.9954 0.0962 -0.0031
vn 0.5547 0.8321 0.0014
vn 0.5646 0.8254 -0.0038
vn 0.5797 0.8147 -0.0119
vn 0.3207 0.2514 -0.9132
vn 0.0183 0.9998 0.0043
vn 0.0123 0.9999 0.0109
vn 0.0222 0.9998 0.0004
vn -0.0089 -0.0300 0.9995
vn -0.0226 0.9353 0.3531
vn -0.0164 0.9288 0.3703
vn -0.0091 0.9263 0.3767
vn 0.0263 0.9996 0.0045
vn 0.9992 0.0345 0.0214
vn 0.9986 0.0520 0.0053
vn 0.9991 0.0413 0.0026
vn 0.5659 0.3405 0.7509
vn -0.0075 0.9245 0.3811
vn 0.9448 0.3181 0.0782
vn 0.2588 0.9652 0.0379
vn 0.2511 0.9679 0.0108
vn 0.2534 0.9672 0.0189
vn 0.8750 0.2874 -0.3896
vn 0.2404 0.9703 -0.0255
vn 0.7849 0.2217 -0.5787
vn 0.9789 0.2045 0.0010
vn 0.9785 0.2046 0.0270
vn 0.9798 0.2000 -0.0052
vn -0.1070 0.9922 -0.0635
vn -0.0841 0.5433 -0.8353
vn -0.5822 0.6993 -0.4147
vn 0.4339 0.0040 -0.9010
vn -0.2505 0.9129 -0.3222
vn -0.3062 0.9098 -0.2801
vn -0.2305 0.9129 -0.3368
vn -0.3255 0.9077 -0.2648
vn -0.0123 0.8610 -0.5084
vn -0.0155 0.8681 -0.4962
vn 0.0079 0.8115 -0.5843
vn -0.2794 -0.9474 0.1559
vn -0.0284 -0.9994 0.0202
vn -0.0364 -0.9992 0.0168
vn -0.0609 -0.9981 0.0061
vn -0.0797 -0.9968 -0.0020
vn -0.9844 -0.1123 0.1354
vn -0.4072 0.0835 0.9095
vn -0.1228 0.2401 0.9629
vn -0.9520 -0.2703 0.1435
vn 0.2981 0.0287 0.9541
vn 0.0998 0.2185 0.9707
vn 0.2721 -0.0907 0.9580
vn -0.0320 -0.9994 0.0118
vn -0.9018 0.3969 -0.1708
vn -0.8593 0.4739 -0.1923
vn -0.8652 0.4642 -0.1896
vn -0.9998 -0.0176 0.0136
vn -0.9988 -0.0205 0.0443
vn -0.9997 0.0187 -0.0185
vn -0.9991 0.0145 -0.0394
vn -0.8600 0.2223 0.4593
vn -0.0142 0.4304 0.9025
vn -0.0398 0.4238 0.9049
vn -0.0019 0.4334 0.9012
vn -0.9994 0.0020 -0.0346
vn -0.0401 0.9648 0.2599
vn -0.0142 0.8560 0.5168
vn -0.0086 0.1450 0.9894
vn -0.0124 0.1563 0.9876
vn 0.9805 0.1963 -0.0021
vn -0.9987 -0.0500 0.0022
vn -0.1908 0.0320 -0.9811
vn -0.4123 0.9008 -0.1365
vn -0.1578 0.0848 -0.9838
vn -0.9981 0.0558 -0.0245
vn 0.9880 -0.0921 -0.1243
vn 0.0214 0.9934 -0.1125
vn 0.0161 0.5740 0.8187
vn -0.9082 0.3838 -0.1671
vn -0.9986 0.0425 -0.0310
vn -0.9992 0.0402 -0.0031
vn -0.3319 0.9432 0.0151
vn 0.0844 0.3422 0.9358
vn -0.9999 0.0152 0.0026
vn -0.9958 0.0720 0.0574
vn -0.9993 0.0348 0.0147
vn -0.9972 -0.0059 -0.0750
vn -0.9815 -0.1904 -0.0222
vn 0.0412 -0.9974 0.0595
vn 0.0639 -0.9973 0.0369
vn 0.0381 -0.9973 0.0626
vn -0.0014 0.0129 -0.9999
vn -0.0089 0.0204 -0.9998
vn -0.0009 0.0125 -0.9999
vn -0.0198 0.6713 -0.7409
vn 0.0134 0.0151 -0.9998
vn 0.0099 0.0136 -0.9999
vn 0.0198 0.0180 -0.9996
vn 0.0112 0.8027 -0.5962
vn 0.0085 -0.9999 0.0135
vn 0.0034 -1.0000 -0.0085
vn -0.0002 -1.0000 0.0007
vn 0.0400 -0.9991 -0.0168
vn 0.9726 0.2116 -0.0969
vn 0.5730 0.5650 0.5937
vn 0.1412 0.0418 0.9891
vn 0.2201 0.7052 0.6739
vn 0.1239 0.9801 0.1549
vn 0.0239 0.9997 -0.0010
vn 0.0447 0.9989 0.0146
vn 0.0491 0.9987 0.0134
vn 0.0687 0.9976 0.0076
vn 0.1084 0.1934 0.9751
vn 0.0756 0.9971 0.0056
vn 0.9982 0.0530 -0.0298
vn 0.0247 0.0946 -0.9952
vn 0.5894 0.8076 -0.0172
vn 0.0086 0.9997 0.0223
vn 0.2367 0.3632 0.9012
vn -0.0002 0.9218 0.3876
vn 0.2360 0.0314 0.9712
vn 0.9647 0.0474 0.2589
vn 0.9990 0.0444 0.0112
vn 0.9950 0.0973 0.0215
vn 0.9895 0.1413 0.0300
vn 0.9960 0.0209 0.0873
vn 0.8941 0.1749 0.4124
vn 0.9761 0.1920 0.1017
vn 0.9803 0.1969 -0.0183
vn 0.0063 0.0052 -1.0000
vn 0.0113 -0.9959 0.0892
vn 0.9517 0.0629 -0.3004
vn 0.0233 0.0195 -0.9995
vn -0.0471 0.4219 0.9054
vn -0.9901 0.0716 0.1205
vn -0.0020 -0.9993 -0.0361
vn -0.3984 0.2167 -0.8913
vn 0.2527 -0.9449 -0.2083
vn 0.9873 0.1553 0.0327
vn -0.9856 -0.0695 0.1539
vn -0.9728 -0.2143 -0.0881
vn 0.6572 0.7527 -0.0398
vn 0.7213 0.6870 0.0884
vn -0.9998 0.0191 0.0008
vn 0.9862 -0.1260 -0.1070
usemtl None
s 1
f 54/1/1 55/2/1 2/3/1 1/4/1
f 5/5/2 8/6/3 6/7/4
f 6/7/4 1/8/5 5/5/2
f 3/9/6 20/10/7 7/11/8
f 4/12/9 9/13/10 8/14/11
f 11/15/12 12/16/13 13/17/14
f 12/18/15 16/19/15 15/20/15
f 14/21/16 12/22/17 15/23/18
f 14/21/16 15/23/18 17/24/19
f 3/25/20 25/26/21 20/27/22
f 3/25/20 4/28/23 25/26/21
f 2/29/24 21/30/25 4/12/9
f 23/31/26 20/27/26 25/26/26
f 21/30/25 25/32/27 4/12/9
f 21/30/28 22/33/28 25/32/28
f 7/11/8 20/10/7 24/34/29
f 20/10/7 23/35/30 24/34/29
f 23/36/31 25/37/32 24/38/33
f 25/32/34 22/33/34 29/39/34
f 33/40/35 24/34/36 27/41/37
f 27/42/38 28/43/39 36/44/40
f 30/45/41 28/46/42 27/47/43
f 25/32/44 29/39/45 26/48/46
f 26/48/46 29/39/45 30/49/47
f 31/50/48 33/51/49 34/52/50
f 32/53/51 34/54/52 38/55/53
f 35/56/54 38/55/54 34/54/54
f 37/57/55 33/51/55 36/58/55
f 28/43/39 37/59/56 36/44/40
f 38/60/57 39/61/57 41/62/57
f 30/63/58 29/64/58 35/65/58
f 29/66/59 73/67/60 35/68/61
f 73/69/62 39/70/63 38/71/64
f 42/72/65 31/73/65 40/74/65
f 38/55/53 45/75/66 40/76/67
f 19/77/68 42/78/68 44/79/68
f 42/78/69 40/80/69 44/79/69
f 43/81/70 45/82/71 46/83/72
f 47/84/73 97/85/74 48/86/75
f 47/87/76 49/88/77 52/89/78
f 43/81/70 46/83/72 89/90/79
f 54/91/80 1/8/5 6/7/4
f 54/91/81 6/7/81 56/92/81
f 55/93/82 54/94/83 56/95/84
f 6/96/85 57/97/85 56/98/85
f 17/24/86 15/23/86 58/99/86
f 63/100/87 17/101/87 59/102/87
f 17/103/88 58/104/88 59/105/88
f 90/106/89 58/104/89 88/107/89
f 57/108/90 61/109/91 80/110/92
f 62/111/93 86/112/93 85/113/93
f 63/100/94 59/102/95 87/114/96
f 73/115/97 68/116/98 66/117/99 67/118/100
f 56/98/101 69/119/102 67/120/103
f 57/97/104 60/121/105 56/98/101
f 70/122/106 71/123/107 73/115/97
f 70/124/108 81/125/109 72/126/108
f 73/115/110 74/127/111 93/128/112 96/129/113
f 97/130/114 53/131/114 78/132/114
f 73/115/110 71/123/115 74/127/111
f 71/133/116 72/134/117 74/135/118
f 65/136/119 87/114/119 74/137/119
f 41/62/120 94/138/121 97/139/122
f 97/85/74 77/140/123 48/86/75
f 77/141/124 78/142/125 48/143/126
f 41/62/120 97/139/122 47/144/127
f 92/145/128 53/131/128 97/130/129 74/127/111 75/146/130
f 97/85/131 78/147/131 77/140/131
f 48/143/126 78/142/125 79/148/132
f 78/132/133 53/131/133 79/149/133
f 82/150/134 85/151/135 84/152/136
f 64/153/137 81/154/137 86/155/137
f 84/152/136 85/151/135 86/156/138
f 87/157/139 65/158/139 63/159/139
f 65/158/140 72/160/141 64/153/142
f 43/81/70 89/90/79 91/161/143
f 90/162/144 43/163/144 91/164/144
f 92/165/145 91/161/145 89/90/145
f 89/166/146 53/167/146 92/168/146
f 92/165/147 76/169/148 91/161/149
f 92/165/147 75/170/150 76/169/148
f 79/148/151 53/171/152 52/172/153
f 4/173/154 3/174/154 7/175/154
f 4/173/155 7/175/156 9/176/157
f 9/176/157 7/175/156 13/177/158
f 8/14/11 5/178/159 4/12/9
f 10/179/160 11/15/12 13/17/14
f 31/180/161 10/179/161 13/17/161
f 12/18/162 11/181/162 10/182/162
f 12/16/163 9/183/163 13/17/163
f 9/183/164 12/16/164 8/184/164
f 12/16/165 14/185/165 8/184/165
f 6/7/4 8/6/3 14/21/166
f 19/186/167 10/182/168 31/187/169
f 15/20/170 16/19/171 19/186/172
f 18/188/173 15/20/170 19/186/172
f 21/30/174 2/29/174 22/33/174
f 22/189/175 55/2/176 66/190/177
f 7/11/178 24/34/178 33/40/178
f 24/38/33 25/37/32 26/191/179
f 29/66/180 22/192/180 68/193/180
f 26/194/181 30/45/41 24/195/182
f 24/195/182 30/45/41 27/47/43
f 28/196/183 30/63/183 37/197/183
f 13/198/184 7/11/184 31/199/184
f 34/52/50 32/200/185 31/50/48
f 40/74/186 31/73/186 32/201/186
f 34/52/50 33/51/49 35/202/187
f 36/203/188 33/40/35 27/41/37
f 37/197/189 30/63/189 35/65/189
f 35/68/190 73/67/190 38/204/190
f 73/69/62 96/205/191 95/206/191 39/70/63
f 19/186/167 31/187/169 42/207/192
f 40/76/67 32/53/51 38/55/53
f 18/188/173 19/186/172 44/208/193
f 18/188/173 44/208/193 43/209/194
f 44/210/195 45/82/195 43/81/195
f 44/79/196 40/80/196 45/211/196
f 45/75/66 38/55/53 46/212/197
f 47/87/76 48/213/198 49/88/77
f 18/188/173 51/214/199 50/215/200
f 50/215/201 15/20/201 18/188/201
f 58/99/202 15/23/203 50/216/204
f 18/188/173 43/209/194 51/214/199
f 50/217/205 51/218/206 90/162/207
f 43/163/208 90/162/208 51/218/208
f 89/166/209 46/219/210 52/220/211
f 46/212/197 47/87/76 52/89/78
f 49/221/212 79/148/151 52/172/153
f 6/7/4 14/21/166 61/222/213
f 62/223/214 61/222/213 14/21/166
f 61/222/213 57/224/215 6/7/4
f 17/24/216 63/225/216 64/226/216
f 64/153/217 86/155/217 62/227/217
f 66/117/99 55/93/82 56/95/84 67/118/100
f 56/98/101 60/121/105 69/119/102
f 69/119/218 80/228/218 83/229/218
f 69/119/102 60/121/105 80/228/219
f 22/189/220 66/190/220 68/230/220
f 67/231/221 69/232/221 83/233/221
f 73/115/97 67/118/100 70/122/106
f 29/66/59 68/193/222 73/67/60
f 67/231/223 83/233/224 70/234/225
f 71/235/226 70/124/108 72/126/108
f 70/234/225 83/233/224 81/236/227
f 74/127/111 59/237/228 75/146/130
f 87/114/96 59/102/95 74/137/229
f 74/135/118 72/134/117 65/238/230
f 39/61/231 95/239/231 94/138/121 41/62/120
f 59/240/232 76/241/232 75/242/232
f 49/221/233 48/143/126 79/148/132
f 80/228/219 60/121/105 57/97/234
f 85/243/235 82/244/235 61/109/235 62/227/235
f 83/245/236 80/110/237 81/154/238
f 82/244/239 80/110/92 61/109/91
f 81/154/240 84/246/240 86/155/240
f 72/160/141 81/154/241 64/153/142
f 64/153/142 63/159/242 65/158/140
f 88/247/243 50/217/205 90/162/207
f 58/99/202 50/216/204 88/248/244
f 76/249/245 90/106/245 91/250/245
f 89/166/209 52/220/211 53/167/246
f 22/189/175 2/3/247 55/2/176
f 33/40/248 31/199/248 7/11/248
f 17/24/249 62/223/214 14/21/166
f 35/202/250 33/51/250 37/57/250
f 62/223/251 17/24/251 64/226/251
f 82/244/252 84/246/252 81/154/238 80/110/237
f 2/29/24 4/12/9 5/178/159 1/251/253
f 19/186/254 16/19/254 12/18/254 10/182/254
f 93/252/255 94/138/255 95/239/255 96/253/255
f 97/130/256 94/254/256 93/128/256
f 74/127/111 97/130/129 93/128/112
f 47/87/76 46/212/197 38/55/53 41/255/257
f 59/105/258 58/104/258 90/106/258 76/249/258
