# Blender v2.92.0 OBJ File: 'Rocks.blend'
# www.blender.org
mtllib Medium Rock_3.mtl
o Medium_Rock_2_Cube.009
v -1.377605 0.214117 -6.883384
v -1.462665 1.346968 -8.260671
v -1.057181 -0.122133 -6.562400
v -1.039657 -0.157420 -8.520516
v -0.602391 0.707129 -5.643230
v 0.817509 -0.175516 -7.373091
v -0.680867 -0.142901 -8.552110
v -0.725864 0.671139 -5.903821
v -0.386188 -0.209161 -5.687869
v -0.386502 -0.203291 -6.235176
v 0.990909 -0.133148 -8.757052
v 0.705133 -0.205738 -5.953447
v -1.797189 3.518842 -6.184497
v -1.881794 3.703104 -6.328592
v -1.988705 2.877742 -6.695563
v -1.984894 2.898034 -7.741208
v -1.347167 0.177290 -8.117330
v -1.899932 3.624804 -8.048377
v -1.806728 3.541044 -8.172212
v -1.562618 2.272838 -6.338061
v -1.657851 2.101950 -6.437444
v -1.278015 4.237899 -7.883376
v -1.427233 4.219726 -7.989844
v -1.317612 4.068821 -8.114649
v -1.422620 2.053886 -8.308045
v -1.308369 2.584415 -5.683156
v -1.246474 2.688343 -6.212527
v -1.330577 2.624842 -6.236269
v -1.011895 1.546637 -6.268500
v -0.631241 3.956060 -6.130949
v -1.502022 4.154960 -6.199566
v -0.898136 1.507128 -8.374143
v -0.711108 2.677226 -5.522506
v -0.754750 1.739644 -5.601045
v -0.334875 4.231486 -7.972826
v -0.080302 4.055040 -8.100749
v -0.175695 2.957707 -6.169695
v -0.676963 2.766741 -5.568438
v 0.007075 3.506049 -6.182057
v -0.676368 4.238255 -6.202114
v -0.006893 2.362398 -5.490571
v -0.177390 2.904344 -5.948552
v -0.018080 4.024677 -6.607745
v -0.294606 4.235174 -6.571090
v 0.212420 2.184716 -8.311303
v -0.318926 1.968832 -8.398692
v -0.023424 1.659950 -5.492054
v 0.035367 2.267803 -6.211699
v 0.082223 3.640271 -6.248073
v 0.000886 4.028357 -7.922374
v 0.503355 1.987730 -8.354388
v -0.777959 -0.068387 -8.575556
v -0.800646 1.349681 -8.542617
v -0.781839 -0.108340 -9.400465
v -0.691244 1.456402 -9.504918
v -0.635894 -0.044039 -9.512680
v 0.663653 1.763770 -9.512478
v -0.246736 -0.064257 -9.491117
v 1.262935 -0.120750 -9.459394
v -0.714652 1.617471 -8.630447
v -0.762662 1.527110 -9.404991
v -0.392472 1.884065 -9.470758
v -0.172225 1.986062 -9.369860
v 0.649330 -0.083251 -5.734081
v 0.871965 -0.160030 -6.614966
v 0.775075 -0.098117 -5.826180
v 0.536327 0.823945 -6.026129
v 0.817555 -0.097050 -6.392666
v 0.637415 0.713194 -6.460826
v 0.893640 -0.062423 -7.281271
v 0.607348 1.444329 -7.290965
v 0.911620 -0.013222 -6.685443
v 0.981179 -0.143874 -7.478282
v 1.248767 -0.126636 -7.727070
v 1.336785 -0.015782 -7.616632
v 1.338752 1.783538 -7.568256
v 0.278578 1.407699 -5.640745
v 0.228264 2.605947 -6.322186
v 0.201014 3.102868 -6.410445
v 0.495917 2.004477 -7.359630
v 0.408588 2.209861 -8.230107
v 0.686443 1.971704 -7.417523
v 1.216354 1.559949 -7.364566
v 0.997154 1.963145 -7.420703
v 1.111136 -0.061274 -9.517492
v 1.331507 0.134998 -9.354704
v 1.207103 1.955983 -8.808128
v 1.327728 1.821477 -8.750877
v 1.290435 1.365394 -9.302533
v 1.294587 0.981123 -9.406757
v 1.246374 0.971110 -9.494363
v 1.097808 1.373198 -9.495870
vn -0.8415 -0.1468 -0.5199
vn -0.8461 -0.1464 -0.5125
vn -0.8718 -0.1405 -0.4692
vn -0.7277 -0.6858 0.0054
vn -0.7351 -0.6779 0.0021
vn -0.7323 -0.6810 0.0034
vn -0.2354 0.1050 -0.9662
vn -0.2259 0.0282 -0.9738
vn -0.1557 0.0392 -0.9870
vn -0.8678 -0.2263 0.4424
vn -0.1432 -0.0753 0.9868
vn 0.0112 -0.1063 0.9943
vn -0.0995 -0.0652 0.9929
vn -0.0260 -0.9981 -0.0551
vn -0.0396 -0.9985 -0.0385
vn 0.0351 -0.9993 -0.0121
vn 0.5882 0.0960 0.8030
vn 0.4786 0.0520 0.8765
vn 0.4440 0.0034 0.8960
vn 0.1847 -0.8373 0.5145
vn 0.1754 -0.8399 0.5136
vn 0.1263 -0.8521 0.5079
vn 0.0583 -0.1152 0.9916
vn -0.6058 0.2986 0.7375
vn -0.5235 -0.1911 0.8303
vn -0.3905 -0.1634 0.9060
vn -0.0727 -0.0452 0.9963
vn -0.9996 -0.0279 -0.0017
vn -0.9992 -0.0408 -0.0056
vn -0.9742 -0.2253 -0.0152
vn -0.7685 0.6397 -0.0113
vn -0.7782 0.6278 -0.0177
vn -0.7818 0.6232 -0.0201
vn -0.9920 0.1264 0.0047
vn -0.9927 0.1205 0.0014
vn -0.4490 -0.0344 -0.8929
vn -0.2570 0.0127 -0.9663
vn -0.1461 -0.1170 0.9823
vn -0.7643 0.6448 -0.0086
vn -0.4881 0.4705 -0.7351
vn -0.5146 0.4789 -0.7112
vn -0.3878 0.4352 -0.8125
vn 0.0149 0.0948 -0.9954
vn 0.0028 0.1115 -0.9938
vn -0.8428 -0.3075 0.4418
vn -0.2512 -0.0708 0.9654
vn -0.2104 -0.0733 0.9749
vn -0.1818 -0.0562 0.9817
vn -0.9541 -0.2986 0.0235
vn -0.9577 -0.2868 0.0233
vn -0.9587 -0.2839 0.0177
vn -0.2743 0.9533 0.1265
vn -0.2476 0.9604 0.1277
vn -0.1800 0.9708 0.1583
vn 0.0925 0.1160 0.9889
vn -0.0592 0.0841 0.9947
vn -0.4349 -0.1467 0.8884
vn -0.3325 -0.1484 0.9314
vn 0.1694 -0.0258 0.9852
vn 0.0761 0.2552 0.9639
vn -0.0728 0.4325 -0.8987
vn 0.0697 -0.0357 0.9969
vn 0.0069 0.1393 -0.9902
vn -0.0895 0.9684 0.2330
vn -0.0491 0.9986 0.0172
vn 0.0054 1.0000 -0.0028
vn 0.0064 1.0000 -0.0026
vn -0.0859 0.9961 0.0195
vn -0.0458 -0.0010 0.9990
vn 0.3253 0.6680 0.6693
vn 0.2788 0.2903 0.9154
vn 0.9510 0.3058 0.0456
vn 0.9420 0.3194 0.1026
vn 0.9427 0.2964 0.1529
vn 0.9505 0.2712 0.1519
vn 0.4390 0.0428 0.8975
vn 0.3959 0.0303 0.9178
vn 0.7119 -0.0542 0.7002
vn 0.7420 -0.0226 0.6700
vn 0.8463 0.1180 0.5194
vn 0.9733 0.2295 0.0059
vn 0.9523 0.2471 -0.1790
vn 0.9641 0.2653 0.0147
vn -0.8448 0.0472 -0.5330
vn -0.8532 0.0289 -0.5208
vn -0.8664 -0.0023 -0.4993
vn -0.9937 0.1102 -0.0211
vn -0.9982 0.0576 -0.0192
vn -0.9999 0.0036 -0.0115
vn -0.6145 -0.7878 0.0410
vn -0.8109 0.0079 -0.5851
vn -0.8012 0.0064 -0.5983
vn -0.6193 -0.0165 -0.7850
vn -0.6044 -0.0182 -0.7965
vn 0.0273 -0.0252 -0.9993
vn 0.0295 -0.0211 -0.9993
vn 0.0047 0.0154 -0.9999
vn 0.0038 -0.9999 -0.0162
vn 0.0197 -0.9997 -0.0163
vn -0.0011 -0.9994 -0.0356
vn -0.0172 -0.8555 -0.5174
vn -0.0200 -0.8453 -0.5340
vn -0.0130 -0.7309 -0.6824
vn -0.8269 0.0831 -0.5562
vn -0.9497 0.3123 0.0224
vn -0.6487 0.7584 -0.0638
vn -0.5761 0.8166 -0.0370
vn -0.6973 0.7157 -0.0403
vn -0.3636 0.9314 -0.0181
vn -0.5518 0.4420 -0.7072
vn -0.2373 0.9711 -0.0272
vn -0.0130 0.0329 -0.9994
vn -0.0280 0.0990 -0.9947
vn 0.0112 -0.9986 -0.0522
vn 0.0305 -0.9995 -0.0127
vn 0.2871 -0.8034 0.5216
vn 0.5956 0.0982 0.7973
vn 0.9583 0.2690 0.0964
vn 0.8036 -0.5922 0.0591
vn 0.8308 0.1476 0.5367
vn 0.9050 0.2312 0.3570
vn 0.8962 0.2188 0.3861
vn 0.9683 -0.1846 0.1682
vn 0.8468 -0.5295 -0.0500
vn 0.8626 -0.5038 -0.0457
vn 0.9805 0.1953 -0.0226
vn 0.9815 0.1862 -0.0450
vn 0.9766 0.2123 0.0335
vn 0.1147 0.0282 0.9930
vn 0.0990 0.1084 0.9892
vn 0.1158 0.1130 0.9868
vn 0.9712 -0.2258 0.0761
vn 0.4660 -0.7252 0.5069
vn 0.8785 -0.1515 0.4530
vn 0.8818 -0.1515 0.4466
vn 0.9102 -0.1514 0.3856
vn 0.4492 -0.7838 0.4288
vn 0.3704 -0.0254 0.9285
vn 0.9745 0.2241 0.0076
vn 0.9466 0.3220 -0.0154
vn 0.9681 0.2495 0.0219
vn 0.9198 0.3923 0.0003
vn 0.1650 0.9862 -0.0154
vn 0.0983 0.9951 -0.0067
vn 0.0337 0.9994 -0.0023
vn 0.0528 0.2048 0.9774
vn 0.1592 0.2077 0.9651
vn 0.3139 0.1768 0.9329
vn 0.0372 0.9993 -0.0093
vn 0.5310 0.3932 0.7507
vn 1.0000 0.0022 -0.0061
vn 0.9917 -0.1261 -0.0261
vn 0.9995 0.0126 -0.0290
vn 0.0548 -0.9985 -0.0074
vn 0.1504 -0.9886 -0.0071
vn 0.6729 0.5318 -0.5142
vn 0.7516 0.4826 -0.4498
vn 0.5883 0.5732 -0.5704
vn 0.7811 -0.6244 0.0043
vn 0.1758 0.9068 -0.3831
vn 0.9945 0.0374 -0.0981
vn 0.5657 0.5826 -0.5836
vn -0.8029 -0.2473 0.5424
vn -0.8633 -0.2229 0.4528
vn -0.8090 -0.2462 0.5338
vn -0.9740 -0.2259 -0.0173
vn -0.7267 -0.6869 0.0059
vn -0.4479 -0.1433 0.8825
vn 0.0061 -0.9999 -0.0122
vn 0.0420 -0.9989 0.0184
vn -0.9345 -0.3555 -0.0188
vn -0.9327 -0.3607 -0.0033
vn -0.9410 -0.3353 -0.0455
vn 0.0005 -0.9999 -0.0107
vn -0.8830 -0.1016 0.4583
vn -0.8990 -0.0754 0.4314
vn -0.8443 -0.1746 0.5066
vn -0.8543 -0.1181 -0.5061
vn -0.8377 -0.1110 -0.5348
vn -0.8280 -0.1076 -0.5503
vn -0.1418 0.9894 0.0299
vn -0.1027 0.9941 0.0353
vn -0.3606 0.4248 -0.8304
vn -0.6152 0.7841 0.0820
vn -0.2993 0.9423 0.1500
vn 0.3338 0.7328 -0.5929
vn 0.0871 0.7970 -0.5976
vn 0.0828 0.7794 -0.6211
vn -0.2962 0.5231 0.7992
vn 0.0081 0.6289 -0.7775
vn 0.0157 0.6016 -0.7986
vn 0.1418 0.4086 0.9016
vn 0.9547 0.2874 0.0767
vn 0.9533 0.2978 0.0504
vn 0.9550 0.2961 0.0171
vn 0.2798 0.2930 0.9143
vn 0.5436 0.6366 0.5470
vn 0.5414 0.6454 0.5388
vn 0.5429 0.6394 0.5444
vn 0.5472 0.6212 0.5610
vn 0.5905 0.8070 0.0056
vn 0.6066 0.7949 0.0110
vn 0.5311 0.8458 -0.0507
vn 0.5219 0.8519 -0.0432
vn 0.5267 0.8424 -0.1137
vn 0.1607 0.2573 -0.9529
vn 0.0336 0.1170 -0.9926
vn 0.4335 -0.0121 0.9011
vn 0.8329 0.1406 0.5353
vn 0.1546 0.4236 -0.8926
vn 0.3600 0.1598 -0.9192
vn -0.0661 -0.3769 -0.9239
vn -0.2388 0.1052 -0.9653
vn -0.9999 0.0117 0.0041
vn -0.0162 -0.8583 -0.5129
vn -0.0038 0.0018 -1.0000
vn -0.6223 0.7747 -0.1120
vn 0.0444 0.6524 -0.7565
vn 0.9620 0.2547 0.0982
vn 0.9680 -0.0388 0.2479
vn 0.9698 -0.0205 0.2432
vn 0.9118 -0.1513 0.3818
vn 0.9997 -0.0232 -0.0051
vn 0.4530 0.0327 0.8909
vn 0.2571 0.5531 -0.7925
vn 0.0275 0.9996 -0.0010
vn 0.4875 0.8703 0.0693
vn 0.5083 0.8587 0.0655
vn 0.6939 0.7196 0.0264
vn 0.7413 0.6710 0.0146
vn -0.0120 -0.7143 -0.6998
vn 0.4280 0.2417 -0.8709
vn 0.7005 -0.0476 -0.7121
vn 0.7265 0.0860 -0.6818
vn 0.7290 0.1044 -0.6766
vn 0.9681 -0.2495 -0.0246
vn 0.8925 0.2622 -0.3670
vn 0.7386 0.2264 -0.6350
vn 0.0522 0.0155 -0.9985
usemtl None
s 1
f 4//1 17//2 2//3
f 1//4 17//5 4//6
f 4//7 2//8 32//9
f 9//10 5//10 8//10
f 5//11 9//12 47//13
f 10//14 3//15 6//16
f 64//17 77//18 47//19
f 12//20 64//21 9//22
f 9//12 64//23 47//13
f 14//24 13//24 31//24
f 21//25 20//26 13//27
f 15//28 16//29 1//30
f 14//31 23//32 18//33
f 15//28 14//34 18//35
f 15//28 18//35 16//29
f 2//8 19//36 25//37
f 20//26 28//38 13//27
f 14//31 31//39 23//32
f 19//40 18//41 23//42
f 25//37 32//9 2//8
f 25//37 19//43 24//44
f 8//45 5//45 26//45
f 26//46 34//47 33//48
f 29//49 26//50 28//51
f 27//52 38//53 37//54
f 13//27 30//55 31//56
f 3//57 29//58 20//26
f 28//38 37//59 13//27
f 30//55 40//60 31//56
f 28//61 27//61 37//61
f 37//59 39//62 13//27
f 32//9 25//37 46//63
f 34//47 47//13 33//48
f 38//53 42//64 37//54
f 40//65 44//66 35//67
f 40//65 35//67 22//68
f 33//48 47//13 41//69
f 38//70 41//70 42//70
f 40//60 30//55 49//71
f 48//72 77//73 67//74
f 48//72 67//74 69//75
f 48//76 78//77 37//59
f 49//78 39//79 79//80
f 49//81 50//82 43//83
f 32//84 53//85 52//86
f 53//87 61//88 52//89
f 7//90 52//90 54//90
f 61//91 55//92 54//93
f 56//94 54//93 55//92
f 58//95 56//96 57//97
f 59//98 11//99 54//100
f 54//101 58//102 59//103
f 32//84 60//104 53//85
f 53//87 60//105 61//88
f 60//106 62//107 61//108
f 60//106 46//109 62//107
f 55//110 61//110 62//110
f 46//109 63//111 62//107
f 57//97 55//112 62//113
f 12//114 10//14 65//115
f 66//116 64//21 12//20
f 64//17 66//117 77//18
f 77//73 66//118 67//74
f 66//119 12//119 68//119
f 69//120 68//121 72//122
f 65//123 6//124 70//125
f 72//126 70//127 71//128
f 70//129 83//130 71//131
f 70//125 72//132 65//123
f 73//133 70//133 6//133
f 70//134 73//135 83//136
f 75//137 73//137 74//137
f 73//138 75//138 76//138
f 71//128 79//139 72//126
f 81//140 80//141 51//142
f 80//143 82//144 51//145
f 79//139 81//140 50//82
f 71//131 84//146 82//147
f 71//131 82//147 80//148
f 82//144 87//149 51//145
f 83//150 76//150 84//150
f 76//151 86//152 88//153
f 74//154 73//155 11//99
f 74//154 11//99 59//98
f 87//156 88//157 89//158
f 75//159 74//159 59//159
f 87//160 57//160 63//160
f 86//152 90//161 89//161 88//153
f 87//156 89//158 92//162 57//162
f 3//163 21//164 1//165
f 1//30 16//29 17//166
f 3//167 1//4 4//6
f 3//57 10//168 29//58
f 6//16 3//15 7//169
f 7//169 3//15 4//170
f 10//171 9//172 8//173
f 10//171 8//173 29//49
f 6//16 7//169 11//99
f 12//114 9//174 10//14
f 13//175 14//176 15//177
f 21//164 13//175 15//177
f 17//2 16//178 2//3
f 2//3 16//178 18//179
f 19//180 2//3 18//179
f 3//57 20//26 21//25
f 20//26 29//58 28//38
f 15//177 1//165 21//164
f 23//181 31//182 22//68
f 24//183 19//40 23//42
f 26//46 5//11 34//47
f 28//184 26//184 27//184
f 27//52 26//185 38//53
f 29//49 8//173 26//50
f 31//182 40//65 22//68
f 23//186 22//187 24//188
f 38//189 26//189 33//189
f 22//187 35//190 24//188
f 5//11 47//13 34//47
f 13//27 39//62 30//55
f 35//190 36//191 24//188
f 33//192 41//192 38//192
f 37//193 42//194 48//72
f 48//72 42//194 41//195
f 30//55 39//196 49//71
f 40//197 49//198 43//199
f 40//197 43//199 44//200
f 44//201 43//202 50//203
f 35//204 44//201 50//203
f 36//205 35//204 50//203
f 45//206 46//63 24//44
f 45//206 24//44 36//207
f 41//208 47//19 77//18
f 48//72 41//195 77//73
f 39//62 37//59 78//77
f 79//80 39//79 78//209
f 51//210 46//63 45//206
f 36//207 81//211 45//206
f 7//212 4//212 52//212
f 32//9 52//213 4//7
f 54//214 52//89 61//88
f 56//215 58//102 54//101
f 57//97 56//96 55//112
f 11//99 7//169 54//100
f 85//216 58//95 57//97
f 32//217 46//109 60//106
f 57//218 62//218 63//218
f 46//109 51//145 63//111
f 65//115 10//14 6//16
f 67//74 66//118 68//219
f 68//220 12//221 65//123
f 67//74 68//219 69//75
f 73//155 6//16 11//99
f 72//132 68//220 65//123
f 83//136 73//135 76//222
f 76//151 75//223 86//152
f 48//76 69//224 78//77
f 79//80 78//209 72//122
f 79//139 71//128 80//141
f 79//139 80//141 81//140
f 49//81 79//139 50//82
f 81//225 51//210 45//206
f 72//122 78//209 69//120
f 71//131 83//130 84//146
f 82//144 84//226 87//149
f 84//227 76//228 87//229
f 87//229 76//228 88//230
f 85//231 59//103 58//102
f 86//232 59//232 85//232
f 86//233 85//233 91//234 90//235
f 86//152 75//223 59//236
f 51//145 87//149 63//111
f 25//37 24//44 46//63
f 50//82 81//140 36//237
f 89//238 90//235 91//234 92//238
f 85//216 57//97 92//239 91//239
