# Blender v2.92.0 OBJ File: 'Rocks.blend'
# www.blender.org
mtllib Medium Rock_4.mtl
o Medium_Rock_1_Cube.004
v -1.613395 -0.911273 -1.889281
v -1.605178 -0.315146 -1.917115
v -0.752280 -0.901222 -1.908062
v -1.508079 -0.912154 -2.759568
v -1.519150 -0.262898 -2.696517
v -1.302793 -0.102561 -2.316097
v -1.480091 -0.835329 -4.180202
v -1.226253 -0.991345 -3.975467
v -1.294878 -1.074171 -4.520502
v -0.828072 -0.459952 -1.919103
v -0.692620 -0.238458 -2.374942
v -0.660682 -0.886211 -2.470772
v -0.181389 -1.081547 -4.084477
v -1.420912 2.466616 -2.466396
v -1.354604 3.060034 -4.132320
v -1.434420 2.864759 -4.299211
v -1.351002 1.948331 -4.387223
v -1.509925 0.747772 -4.234973
v -0.732222 2.901411 -2.402205
v -1.325590 3.105099 -2.814106
v 0.444589 2.916093 -4.268721
v -1.233677 -1.070029 -5.222836
v -1.262889 0.280905 -5.222393
v -1.292250 1.358709 -5.208780
v -0.238365 -0.611643 -2.405513
v 0.009436 -0.960999 -3.954830
v 0.733260 -0.986801 -2.862847
v 0.759474 -0.836377 -2.576990
v 0.340125 0.296085 -2.384529
v 0.165978 -0.919591 -4.494168
v 0.155519 0.410883 -4.608265
v 0.502217 0.348545 -4.522763
v 1.856939 -0.928967 -2.711503
v 1.960743 -0.928129 -4.496234
v 2.022038 -0.450571 -2.638931
v 2.017392 0.021176 -4.430147
v 2.000956 0.108239 -3.104011
v 0.118754 1.621481 -2.316005
v 0.231810 3.081096 -2.639727
v 0.215459 3.072392 -4.127479
v 0.770624 0.270895 -2.685482
v 0.861809 0.611777 -2.911422
v 0.579752 1.540409 -2.724939
v 0.285869 2.813528 -2.429029
v 0.508362 2.649506 -2.595417
v 0.485602 2.171175 -4.154941
v 0.821891 0.628377 -4.166109
v 1.355308 0.585402 -2.970507
v 1.542792 0.595112 -4.140402
v -0.010820 -1.040149 -5.254444
v 0.115849 1.092834 -5.106415
v -0.097755 1.629978 -4.905536
v -0.229716 1.096937 -5.294640
v 0.017876 2.025299 -4.279216
vn -0.9927 0.0081 -0.1201
vn -0.9932 0.0023 -0.1161
vn -0.9979 -0.0093 -0.0642
vn -0.9992 -0.0008 -0.0407
vn -0.5839 0.8117 -0.0100
vn 0.1975 0.8237 0.5316
vn 0.1869 0.8379 0.5129
vn 0.2295 0.7761 0.5874
vn -0.4892 -0.8703 -0.0567
vn -0.9998 0.0196 0.0064
vn -0.9996 -0.0196 -0.0208
vn 0.0135 0.0350 0.9993
vn 0.0075 0.0263 0.9996
vn 0.0171 0.0404 0.9990
vn 0.0111 -0.9996 -0.0249
vn 0.0225 -0.9997 -0.0063
vn 0.0006 -0.9997 0.0250
vn 0.0173 -0.9991 0.0389
vn 0.0183 -0.9979 0.0628
vn 0.0195 -0.9998 -0.0103
vn -0.9964 0.0810 0.0249
vn -0.9871 0.1590 0.0181
vn -0.9819 0.1849 0.0420
vn -0.9279 0.3727 0.0077
vn -0.7586 0.0115 -0.6514
vn -0.7062 0.0037 -0.7080
vn -0.7095 0.0046 -0.7047
vn 0.0037 0.9998 -0.0206
vn 0.0054 0.9998 -0.0185
vn -0.0078 0.9994 -0.0340
vn -0.0255 0.8232 -0.5672
vn -0.0170 0.8331 -0.5528
vn -0.0358 0.8107 -0.5844
vn -0.0034 0.6650 -0.7469
vn -0.0055 0.6510 -0.7591
vn -0.0053 0.6521 -0.7582
vn -0.0030 0.6681 -0.7441
vn -0.0395 -0.0052 -0.9992
vn -0.0608 -0.0135 -0.9981
vn -0.0873 -0.0277 -0.9958
vn 0.4630 -0.8853 0.0426
vn 0.4945 -0.8657 0.0771
vn 0.4827 -0.8734 0.0640
vn 0.0361 -0.1036 0.9940
vn 0.0549 -0.1926 0.9797
vn 0.0755 -0.0682 0.9948
vn 0.1307 -0.1655 0.9775
vn -0.0057 -1.0000 -0.0072
vn -0.0174 -0.8842 0.4669
vn 0.0245 -0.8856 0.4638
vn 0.5900 0.0909 0.8023
vn 0.5743 0.0741 0.8153
vn 0.5741 0.0920 0.8136
vn 0.0415 0.0267 -0.9988
vn 0.0379 -0.0326 -0.9988
vn 0.1206 -0.0368 -0.9920
vn 0.0511 -0.9987 0.0025
vn 0.0169 -0.9996 -0.0232
vn 0.9993 0.0084 -0.0352
vn 0.9992 -0.0392 0.0004
vn 0.9997 -0.0096 -0.0217
vn 0.9413 -0.3331 0.0546
vn -0.0044 0.0284 0.9996
vn 0.0072 -0.0274 0.9996
vn -0.0432 0.0612 0.9972
vn 0.0745 0.6262 0.7761
vn 0.0161 0.9999 -0.0060
vn 0.0320 0.0316 -0.9990
vn 0.0520 0.0663 -0.9964
vn 0.0161 0.0041 -0.9999
vn 0.6073 -0.0442 0.7933
vn 0.6493 0.0360 0.7597
vn 0.5695 -0.0591 0.8198
vn 0.9844 0.1755 -0.0121
vn 0.9937 0.1117 -0.0103
vn 0.9974 0.0633 -0.0340
vn 0.8382 0.5427 0.0545
vn 0.9697 0.2443 0.0083
vn 0.2914 0.6081 -0.7384
vn 0.4906 0.2140 -0.8447
vn 0.2391 0.0591 -0.9692
vn 0.2607 -0.0136 -0.9653
vn 0.2691 -0.0432 -0.9621
vn 0.2500 0.4876 0.8365
vn 0.1897 0.4331 0.8811
vn 0.2017 0.4442 0.8729
vn 0.1299 0.3771 0.9170
vn 0.0547 0.9984 0.0115
vn 0.0519 0.9986 0.0128
vn 0.0479 0.9987 0.0145
vn 0.6049 0.7895 0.1035
vn 0.6647 0.7450 0.0562
vn 0.7147 0.6993 0.0126
vn 0.7620 0.6468 -0.0330
vn 0.4559 -0.8893 0.0350
vn 0.9932 -0.0122 -0.1156
vn 0.9787 -0.0213 -0.2040
vn 0.9989 0.0431 -0.0206
vn 0.0760 0.5755 -0.8142
vn 0.4287 0.4610 -0.7770
vn 0.4784 0.0325 -0.8776
vn 0.7673 0.4688 -0.4375
vn 0.0212 0.0463 0.9987
vn -0.8699 -0.0255 -0.4926
vn -0.8873 -0.0326 -0.4600
vn -0.6223 -0.7584 0.1936
vn 0.9667 0.0834 0.2420
vn 0.9200 0.1669 0.3545
vn 0.9668 0.0832 0.2416
vn 0.9866 0.0248 0.1613
vn 0.1629 0.8675 0.4699
vn 0.0068 -0.7373 0.6755
vn -0.0077 -0.9997 0.0249
vn -0.0685 -0.9850 0.1583
vn -0.0279 -0.9981 0.0544
vn -0.8672 -0.0108 0.4978
vn -0.1253 0.0522 0.9907
vn -0.3799 0.4855 0.7874
vn 0.0726 0.1019 -0.9921
vn -0.9960 -0.0215 -0.0869
vn -0.9964 -0.0209 -0.0826
vn -0.9952 -0.0252 -0.0941
vn -0.0258 -0.0002 -0.9997
vn -0.0157 0.0094 -0.9998
vn -0.9978 -0.0172 -0.0646
vn -0.9981 -0.0159 -0.0600
vn -0.0064 -0.2219 0.9751
vn 0.0099 -0.9998 -0.0192
vn 0.0655 -0.8855 0.4600
vn 0.0153 -0.9988 -0.0465
vn 0.2248 -0.0815 -0.9710
vn 0.0191 0.0973 0.9951
vn 0.0748 0.0648 -0.9951
vn 0.1042 -0.1842 0.9773
vn 0.5389 0.5508 0.6374
vn 0.9980 -0.0607 0.0164
vn 0.0340 0.0896 0.9954
vn -0.0415 0.8706 0.4903
vn -0.0055 0.8461 -0.5330
vn 0.8257 0.1411 0.5462
vn 0.6656 0.0217 0.7460
vn 0.7236 0.5113 0.4636
vn 0.9550 0.2954 -0.0265
vn 0.9983 0.0504 -0.0300
vn 0.5589 0.8292 -0.0110
vn 0.2919 -0.1287 -0.9477
vn 0.0455 0.9988 0.0156
vn 0.1692 0.5521 -0.8164
vn 0.0236 -0.9992 -0.0319
vn 0.9744 -0.0116 -0.2247
vn 0.9965 0.0791 0.0289
vn 0.0581 0.7594 -0.6480
usemtl None
s 1
f 1//1 2//2 4//3
f 2//2 5//4 4//3
f 2//5 6//5 5//5
f 2//6 11//7 6//8
f 8//9 4//9 7//9
f 5//4 18//10 4//3
f 7//11 4//3 18//10
f 3//12 10//13 2//14
f 3//15 1//16 12//17
f 4//18 8//19 12//17
f 26//20 12//17 8//19
f 14//21 16//22 5//4
f 16//22 20//23 15//24
f 18//25 16//26 17//27
f 20//28 40//29 15//30
f 17//31 52//32 24//33
f 21//34 16//35 15//36
f 40//37 21//34 15//36
f 50//38 24//39 53//40
f 30//41 26//42 13//43
f 11//44 25//45 29//46
f 25//45 28//47 29//46
f 27//48 12//17 26//20
f 33//49 28//50 27//50
f 29//51 28//52 41//53
f 34//54 30//55 32//56
f 33//57 27//48 34//58
f 35//59 34//60 37//61
f 35//62 33//62 34//62
f 29//46 38//63 6//64
f 6//64 38//63 19//65
f 19//66 44//66 39//66
f 20//28 39//67 40//29
f 54//68 16//69 21//70
f 44//71 43//72 45//73
f 43//74 46//75 45//76
f 39//77 45//77 21//77
f 43//74 47//78 46//75
f 47//79 32//79 31//79
f 31//80 54//80 47//80
f 47//81 54//82 46//83
f 41//84 35//85 42//86
f 35//85 48//87 42//86
f 42//88 48//89 47//90
f 48//91 37//92 49//93
f 49//93 37//92 36//94
f 50//95 30//41 13//43
f 31//96 50//97 51//98
f 24//99 52//99 53//99
f 52//100 51//100 53//100
f 53//101 51//101 50//101
f 52//102 54//102 51//102
f 1//103 3//12 2//14
f 4//18 12//17 1//16
f 18//25 9//104 7//105
f 9//106 8//106 7//106
f 11//107 10//108 3//109
f 12//110 11//107 3//109
f 2//6 10//111 11//7
f 26//112 8//112 13//112
f 13//113 8//114 9//115
f 14//116 5//116 6//116
f 5//4 16//22 18//10
f 14//21 20//23 16//22
f 9//104 18//25 17//27
f 19//65 14//117 6//64
f 14//118 19//118 20//118
f 54//68 17//119 16//69
f 22//120 9//121 23//122
f 50//38 22//123 23//124
f 23//122 9//121 24//125
f 50//38 23//124 24//39
f 17//126 24//125 9//121
f 11//44 12//127 25//45
f 13//113 9//115 22//128
f 27//50 28//50 12//129
f 28//47 25//45 12//127
f 30//130 27//48 26//20
f 32//56 30//55 31//131
f 41//132 28//132 35//132
f 34//58 27//48 30//130
f 34//54 32//56 36//133
f 28//134 33//134 35//134
f 37//135 48//135 35//135
f 36//136 37//61 34//60
f 19//65 38//63 44//137
f 19//138 39//138 20//138
f 17//31 54//139 52//32
f 42//140 43//140 41//140
f 38//141 29//51 43//72
f 29//51 41//53 43//72
f 44//71 38//141 43//72
f 45//142 39//142 44//142
f 47//78 43//74 42//143
f 45//76 46//75 21//144
f 40//145 39//145 21//145
f 21//146 46//83 54//82
f 47//90 48//89 49//147
f 49//148 36//148 32//148
f 50//149 13//113 22//128
f 31//96 30//150 50//97
f 54//151 31//96 51//98
f 29//46 6//64 11//44
f 47//152 49//152 32//152
