# Blender v2.92.0 OBJ File: 'Rocks.blend'
# www.blender.org
mtllib Small Rock 4.mtl
o Small_Rock_1_Icosphere
v -0.894425 -0.447215 0.000000
v 0.723600 -0.447215 -0.899694
v 0.276385 0.447215 -1.455747
v 0.397476 0.775366 -0.290980
v -0.135869 1.127551 -0.603271
v -0.615030 -0.619891 0.000000
v -0.190051 -0.619888 -1.001018
v 0.497570 -0.619888 -0.618657
v -0.326597 -0.619889 0.679390
v 0.210458 -0.619888 0.778310
v 0.497570 -0.619888 0.102020
v 0.749607 0.047303 -0.649361
v -0.553702 0.107419 -1.110939
v -0.788497 0.107418 -0.557896
v -0.723600 0.447215 -0.216087
v -0.469307 0.708348 -0.780807
v -0.030047 -0.048619 -1.455747
v -0.463517 -0.380336 -0.859876
v 0.010460 0.933565 0.289272
v 0.073169 0.102638 0.691779
v 0.513926 -0.317943 0.113273
v 0.465605 0.473249 0.005801
v -0.767762 0.234477 0.483158
v -0.446937 0.300714 0.943677
v -0.358655 0.754361 0.519338
v -0.542100 0.740206 0.355637
v -0.702680 -0.237973 0.723582
v -0.324790 -0.601395 0.690376
v -0.000505 0.088992 0.957183
v -0.446908 0.300682 0.943701
vt 0.900846 0.070847
vt 0.907441 0.072717
vt 0.907623 0.079890
vt 0.897415 0.076789
vt 0.891227 0.066071
vt 0.878850 0.087508
vt 0.874453 0.082782
vt 0.873513 0.079788
vt 0.884315 0.081960
vt 0.863570 0.079807
vt 0.864872 0.079669
vt 0.867500 0.082782
vt 0.866473 0.087508
vt 0.864870 0.074478
vt 0.920367 0.067824
vt 0.869847 0.073597
vt 0.903604 0.087508
vt 0.887310 0.075074
vt 0.915981 0.066071
vt 0.920263 0.073209
vt 0.914495 0.076789
vt 0.912143 0.072717
vt 0.893160 0.062722
vt 0.901671 0.062722
vt 0.891227 0.087508
vt 0.884313 0.062722
vt 0.873363 0.062722
vt 0.876969 0.061185
vt 0.874504 0.067244
vt 0.869848 0.073598
vt 0.883852 0.062985
vt 0.917914 0.062722
vt 0.905537 0.062722
vt 0.885951 0.062722
vt 0.875615 0.062722
vt 0.878411 0.068059
vt 0.884337 0.062722
vt 0.889294 0.062722
vt 0.914048 0.062722
vt 0.907607 0.066435
vt 0.868223 0.079669
vt 0.864870 0.074478
vt 0.923690 0.062722
vt 0.923764 0.062920
vt 0.924792 0.073103
vt 0.920644 0.079903
vt 0.915981 0.087508
vt 0.924792 0.073102
vn -0.4874 0.4063 -0.7729
vn 0.4654 -0.2876 -0.8370
vn 0.6179 0.7590 0.2052
vn -0.2932 0.9231 0.2487
vn -0.1715 -0.3018 0.9378
vn -0.4037 0.6099 -0.6820
vn 0.8267 0.5133 -0.2306
vn -0.9824 0.1868 -0.0032
vn 0.2107 -0.7405 -0.6382
vn 0.6356 0.7233 -0.2699
vn 0.7041 0.0235 0.7097
vn 0.0000 -1.0000 -0.0000
vn 0.8845 0.1728 -0.4333
vn 0.9444 -0.2743 0.1815
vn -0.8836 0.3568 -0.3033
vn -0.6179 -0.7225 -0.3102
vn -0.6143 -0.4091 -0.6747
vn -0.8541 -0.3108 -0.4171
vn 0.5639 0.4841 0.6691
vn 0.9397 0.2021 0.2759
vn -0.5987 -0.7328 0.3233
vn -0.6981 0.5147 0.4977
vn -0.8142 0.5798 -0.0312
vn -0.1843 -0.2778 0.9428
vn -0.9212 0.0680 0.3830
vn 0.8308 0.1244 0.5425
usemtl Master_Mat
s off
f 17/1/1 13/2/1 16/3/1 3/4/1
f 2/5/2 17/1/2 3/4/2
f 5/6/3 19/7/3 22/8/3 4/9/3
f 26/10/4 25/11/4 19/12/4 5/13/4
f 30/14/5 27/15/5 29/16/5
f 3/4/6 16/3/6 5/17/6
f 3/4/7 4/9/7 12/18/7
f 1/19/8 23/20/8 15/21/8 14/22/8
f 8/23/9 7/24/9 17/1/9 2/5/9
f 4/9/10 3/4/10 5/25/10
f 9/26/11 10/27/11 11/28/11 21/29/11 20/30/11 29/16/11 28/31/11
f 6/32/12 7/33/12 8/23/12 11/34/12 10/35/12 9/26/12
f 2/5/13 3/4/13 12/18/13
f 12/18/14 21/36/14 11/37/14 8/38/14 2/5/14
f 13/2/15 14/22/15 15/21/15 16/3/15
f 7/33/16 6/39/16 1/19/16 18/40/16
f 13/2/17 17/1/17 7/24/17 18/40/17
f 13/2/18 18/40/18 1/19/18 14/22/18
f 25/41/19 24/42/19 30/14/19 29/16/19 20/30/19 22/8/19 19/7/19
f 21/29/20 12/18/20 4/9/20 22/8/20
f 6/32/21 9/43/21 28/44/21 27/15/21 1/19/21
f 23/20/22 24/45/22 25/41/22 26/10/22
f 16/3/23 15/21/23 23/20/23 26/46/23 5/47/23
f 27/15/24 28/44/24 29/16/24
f 1/19/25 27/15/25 30/48/25 24/45/25 23/20/25
f 20/30/26 21/29/26 22/8/26
