# Blender v2.92.0 OBJ File: 'Rocks.blend'
# www.blender.org
mtllib Small Rock_3.mtl
o Small_Rock_3_Icosphere.001
v 0.723600 -0.784815 5.946443
v -0.276385 -0.784815 6.271362
v -0.894425 -0.784815 5.420722
v -0.276385 -0.784815 4.570083
v 0.723600 -0.784815 4.895002
v 0.853956 -0.105306 5.382181
v -0.212873 1.427871 5.533065
v -0.821331 -0.864092 5.420722
v -0.253801 -0.864084 4.639592
v 0.664471 -0.864085 4.937962
v 0.664471 -0.864085 5.903483
v -0.253801 -0.864084 6.201853
v 0.066646 1.390905 5.687212
v 0.287326 1.370461 5.404719
v 0.024045 1.400815 5.193861
v -0.292106 1.355224 5.287764
v 0.173261 1.146767 5.953975
v 0.148203 1.284518 5.895952
v 0.560722 1.146745 5.420722
v 0.528224 1.222980 5.414241
v 0.165774 0.941294 4.798177
v 0.115703 1.222830 4.936920
v -0.540509 0.863483 5.312330
v -0.399844 1.097010 5.232484
v -0.424228 1.284493 5.709957
v -0.453560 1.146839 5.750249
v -0.801759 -0.349574 5.818782
v -0.384933 -0.197658 6.210622
v -0.239444 0.259636 6.207626
v -0.380496 0.675385 5.999476
v -0.369113 0.171219 4.814389
v -0.731810 -0.084402 5.322649
v -0.231279 0.661655 4.939430
v 0.748708 0.124615 5.788331
v 0.804676 -0.039842 5.144518
v 0.630534 0.659086 5.205267
v 0.723600 -0.784815 5.486217
v 0.664471 -0.864085 5.486324
v 0.481013 0.645108 5.930559
v -0.010641 -0.030216 6.271362
v 0.540845 -0.143384 6.079221
v 0.179646 0.870291 6.098255
v 0.387941 -0.466811 4.759017
v 0.179237 0.155765 4.749300
v 0.149677 0.576498 4.749434
v 0.178400 0.927191 4.800467
v 0.452170 0.567449 4.942396
v 0.035992 1.471211 5.393494
vt 0.352311 0.157461
vt 0.352293 0.144594
vt 0.447117 0.144594
vt 0.454546 0.157461
vt 0.643793 0.144594
vt 0.810753 0.144593
vt 0.818182 0.157461
vt 0.636364 0.157461
vt 0.098339 0.144594
vt 0.265299 0.144594
vt 0.272728 0.157461
vt 0.090910 0.157461
vt 0.461975 0.144594
vt 0.628935 0.144594
vt 0.305974 0.283907
vt 0.244709 0.303220
vt 0.235578 0.221807
vt 0.195533 0.341318
vt 0.373926 0.330802
vt 0.329720 0.373668
vt 0.215739 0.373672
vt 0.876083 0.257749
vt 0.509416 0.333896
vt 0.794599 0.236150
vt 0.670267 0.253367
vt 0.657745 0.304618
vt 0.561225 0.294851
vt 0.543637 0.253205
vt 0.571810 0.344640
vt 0.719768 0.327921
vt 0.575835 0.346746
vt 0.411399 0.232194
vt 0.485238 0.300402
vt 0.403787 0.309264
vt 0.280157 0.144594
vt 0.590463 0.377109
vt 0.696744 0.367799
vt 0.696744 0.367799
vt 0.590463 0.377109
vt 0.787655 0.367799
vt 0.870222 0.382245
vt 0.870222 0.382245
vt 0.787655 0.367799
vt 0.038869 0.382245
vt 0.142950 0.382245
vt 0.142950 0.382245
vt 0.038869 0.382245
vt 0.825611 0.144593
vt 0.358712 0.144594
vt 0.992571 0.144594
vt 1.000000 0.157461
vt 0.400294 0.378414
vt 0.509551 0.377109
vt 0.509551 0.377109
vt 0.401886 0.381172
vt 0.220688 0.382244
vt 0.326980 0.378414
vt 0.325388 0.381172
vt 0.220688 0.382244
vt 0.776012 0.327912
vt 0.814951 0.339765
vt 0.875165 0.373684
vt 0.381255 0.249456
vt 0.956701 0.232457
vt 0.134614 0.233160
vt 0.033927 0.373684
vt 0.147899 0.373672
vt 0.397554 0.373669
vt 0.527081 0.346746
vt 0.265467 0.279125
vt 0.525465 0.344640
vt 0.339849 0.311812
vt 0.326640 0.381353
vt 0.116821 0.326354
vt 0.170410 0.338832
vt 0.177438 0.335387
vt 0.047611 0.232457
vt 0.469133 0.211201
vt 0.482057 0.378721
vn 0.8016 -0.5979 0.0000
vn -0.6485 -0.5979 -0.4712
vn 0.2477 -0.5979 0.7623
vn 0.2477 -0.5979 -0.7623
vn 0.7440 0.1335 0.6547
vn 0.8625 0.2675 0.4296
vn -0.9471 0.3187 0.0368
vn -0.1706 0.2026 -0.9643
vn -0.5041 0.3249 -0.8002
vn -0.8155 0.0850 -0.5725
vn 0.7616 0.2420 -0.6011
vn -0.4466 0.5316 -0.7197
vn -0.7957 0.5866 -0.1507
vn -0.1617 0.8522 0.4975
vn 0.0000 -1.0000 -0.0000
vn -0.6485 -0.5979 0.4712
vn 0.4588 0.7851 -0.4161
vn 0.4699 0.8373 0.2796
vn -0.9578 0.1269 0.2578
vn 0.9878 -0.1395 -0.0697
vn -0.7356 -0.2225 0.6399
vn 0.3072 -0.1082 0.9455
vn -0.2922 0.3256 0.8992
vn 0.7525 0.3672 0.5467
vn 0.7092 0.3826 -0.5922
vn -0.5642 0.1911 -0.8032
vn -0.9167 0.3773 -0.1314
vn -0.6814 0.1753 0.7106
vn -0.7813 0.2252 -0.5821
vn 0.7295 0.3516 -0.5867
vn 0.8931 0.4069 0.1920
vn -0.2800 0.3521 0.8931
vn 0.9875 -0.0736 0.1395
vn 0.9591 0.2829 0.0111
vn 0.4306 0.1367 0.8921
vn -0.1240 0.1187 0.9852
vn -0.2950 0.4104 0.8629
vn -0.2776 0.4394 0.8543
vn 0.5402 0.0441 -0.8404
vn 0.2434 0.0665 -0.9677
vn 0.5647 0.1767 -0.8062
vn 0.5350 0.2154 -0.8169
vn 0.3080 -0.0803 -0.9480
vn 0.3555 0.9104 0.2118
vn 0.3640 0.8713 -0.3290
vn -0.2257 0.9229 -0.3119
vn -0.2717 0.9431 -0.1916
vn -0.0189 0.9639 0.2655
usemtl None
s off
f 37/1/1 38/2/1 10/3/1 5/4/1
f 9/5/2 8/6/2 3/7/2 4/8/2
f 12/9/3 11/10/3 1/11/3 2/12/3
f 10/13/4 9/14/4 4/8/4 5/4/4
f 1/11/5 34/15/5 39/16/5 41/17/5
f 42/18/6 39/16/6 36/19/6 19/20/6 17/21/6
f 3/7/7 27/22/7 30/23/7 32/24/7
f 4/8/8 31/25/8 33/26/8 45/27/8 44/28/8
f 46/29/9 45/27/9 33/26/9 23/30/9 21/31/9
f 4/8/10 3/7/10 32/24/10 31/25/10
f 35/32/11 47/33/11 36/34/11
f 1/11/1 11/35/1 38/2/1 37/1/1
f 22/36/12 24/37/12 16/38/12 15/39/12
f 24/40/13 25/41/13 7/42/13 16/43/13
f 25/44/14 18/45/14 13/46/14 7/47/14
f 8/48/15 9/5/15 10/13/15 38/49/15
f 8/48/16 12/50/16 2/51/16 3/7/16
f 20/52/17 22/53/17 15/54/17 14/55/17
f 18/56/18 20/57/18 14/58/18 13/59/18
f 23/60/19 32/24/19 30/61/19 26/62/19
f 37/1/20 5/4/20 35/32/20 6/63/20
f 3/7/21 2/51/21 28/64/21 27/22/21
f 2/12/22 1/11/22 41/17/22 40/65/22
f 26/66/23 17/67/23 18/45/23 25/44/23
f 17/21/24 19/20/24 20/57/24 18/56/24
f 19/68/25 21/69/25 22/53/25 20/52/25
f 21/31/26 23/30/26 24/37/26 22/36/26
f 23/60/27 26/62/27 25/41/27 24/40/27
f 27/22/28 28/64/28 29/70/28 30/23/28
f 31/25/29 32/24/29 23/60/29 33/26/29
f 36/34/30 47/33/30 46/71/30 21/69/30 19/68/30
f 34/72/31 36/34/31 39/73/31
f 30/74/32 29/70/32 42/75/32
f 12/9/15 8/48/15 38/49/15 11/35/15
f 1/11/33 37/1/33 6/63/33 34/15/33
f 6/63/34 35/32/34 36/34/34 34/72/34
f 40/65/35 41/17/35 39/16/35 42/76/35
f 2/12/36 40/65/36 42/76/36 29/70/36 28/77/36
f 26/66/37 30/74/37 42/75/37
f 17/67/38 26/66/38 42/75/38
f 44/28/39 45/27/39 46/29/39 47/33/39 35/32/39
f 4/8/40 44/28/40 43/78/40
f 43/78/41 44/28/41 35/32/41
f 5/4/42 43/78/42 35/32/42
f 5/4/43 4/8/43 43/78/43
f 13/46/44 14/58/44 48/79/44
f 14/58/45 15/54/45 48/79/45
f 15/54/46 16/38/46 48/79/46
f 16/38/47 7/42/47 48/79/47
f 7/42/48 13/46/48 48/79/48
